<?xml version="1.0" encoding="UTF-8" standalone="no"?>
<!-- Created with Inkscape (http://www.inkscape.org/) -->

<svg
   xmlns:dc="http://purl.org/dc/elements/1.1/"
   xmlns:cc="http://creativecommons.org/ns#"
   xmlns:rdf="http://www.w3.org/1999/02/22-rdf-syntax-ns#"
   xmlns:svg="http://www.w3.org/2000/svg"
   xmlns="http://www.w3.org/2000/svg"
   xmlns:sodipodi="http://sodipodi.sourceforge.net/DTD/sodipodi-0.dtd"
   xmlns:inkscape="http://www.inkscape.org/namespaces/inkscape"
   id="svg7702"
   version="1.1"
   inkscape:version="0.48.1 "
   width="365.6125"
   height="627.975"
   xml:space="preserve"
   sodipodi:docname="california.pdf"><metadata
     id="metadata7708"><rdf:RDF><cc:Work
         rdf:about=""><dc:format>image/svg+xml</dc:format><dc:type
           rdf:resource="http://purl.org/dc/dcmitype/StillImage" /><dc:title></dc:title></cc:Work></rdf:RDF></metadata><defs
     id="defs7706" /><sodipodi:namedview
     pagecolor="#ffffff"
     bordercolor="#666666"
     borderopacity="1"
     objecttolerance="10"
     gridtolerance="10"
     guidetolerance="10"
     inkscape:pageopacity="0"
     inkscape:pageshadow="2"
     inkscape:window-width="640"
     inkscape:window-height="480"
     id="namedview7704"
     showgrid="false"
     inkscape:zoom="0.46339426"
     inkscape:cx="182.80624"
     inkscape:cy="313.98749"
     inkscape:window-x="645"
     inkscape:window-y="156"
     inkscape:window-maximized="0"
     inkscape:current-layer="g7710" /><g
     id="g7710"
     inkscape:groupmode="layer"
     inkscape:label="california"
     transform="matrix(1.25,0,0,-1.25,0,627.975)"><g
       id="g7712"
       transform="scale(0.24,0.24)"><path
         d="m 117.309,2090.65 563.675,-143.61 -121.453,-568.19 604.159,-949.061 6.23,-12.488 0,-40.59 3.12,-12.481 3.11,-15.613 6.23,-12.488 9.34,-12.488 3.12,-9.364 6.22,-9.367 9.35,-6.246 6.22,-12.488 0,-6.242 -6.22,-6.243 -24.92,-12.488 -31.14,-6.242 -12.46,-21.856 -12.46,-24.976 -9.34,-40.582 -6.22,-53.074 -12.46,-28.098 -18.69,-9.3633 0,-15.6094 18.69,-6.246 9.34,-12.4883 0,-12.4883 -12.46,-6.2422 -24.91,-21.85547 -12.45,0 0,21.85547 -404.856,46.832 0,21.8477 6.227,18.7348 -9.344,81.168 -18.684,43.707 -24.914,21.855 0,9.367 -3.113,37.461 -21.801,12.488 -28.027,31.219 -15.57,6.246 0,15.61 -31.145,21.851 -56.055,49.953 -12.457,12.489 -24.914,9.363 -80.972,74.926 -9.34,9.367 -28.027,15.609 -21.801,0 -15.571,9.367 -9.343,15.606 -9.344,21.855 6.23,18.731 24.914,34.344 -6.23,28.093 -6.227,28.098 -12.457,28.102 -52.945,68.679 -12.457,15.61 0,37.464 -12.457,18.727 -12.453,9.367 -12.457,12.489 0,34.343 -6.231,15.61 -9.343,21.851 -3.114,12.488 0,12.485 3.114,15.61 6.23,6.25 37.371,6.24 18.684,12.49 0,6.24 -24.91,18.73 -18.688,31.23 -12.457,28.09 -6.23,28.1 0,40.58 -6.227,28.1 0,9.37 6.227,12.49 15.574,-9.37 18.683,-12.49 6.227,-12.49 9.348,-3.12 15.566,0 0,43.71 -12.457,12.49 -6.227,18.73 0,15.61 18.684,-3.13 18.688,-12.48 0,21.85 -6.227,18.73 -21.801,12.49 -15.574,9.36 -21.797,6.25 -9.344,0 0,-12.49 3.114,-9.37 0,-12.48 3.117,-18.73 -6.231,-3.13 -12.457,-12.48 -12.457,0 -12.457,9.36 -12.4567,6.25 0,21.85 -12.4571,18.73 -6.2265,3.12 -6.2305,12.49 0,34.34 6.2305,0 12.457,6.25 3.1133,18.73 -15.5703,28.1 -15.5743,15.6 -3.1093,12.49 0,18.73 -9.3477,31.22 -9.3398,24.98 -9.3438,21.85 0,43.71 12.457,37.46 3.1133,34.34 6.2305,12.49 -6.2305,24.98 -18.6836,28.09 -6.2304,12.49 0,18.73 -12.45707,18.73 0,31.22 12.45707,53.08 9.3437,21.85 6.2305,12.49 6.2265,0 6.2266,-12.49 3.1172,-15.61 3.1133,-6.24 18.6875,0 6.2265,18.73 12.4571,56.19 15.57,53.07 12.457,56.2 3.114,18.73 0,0"
         style="fill:#ffffff;fill-opacity:1;fill-rule:nonzero;stroke:none"
         id="path7714" /><path
         d="m 117.309,2090.65 563.675,-143.61 -121.453,-568.19 604.159,-949.061 6.23,-12.488 0,-40.59 3.12,-12.481 3.11,-15.613 6.23,-12.488 9.34,-12.488 3.12,-9.364 6.22,-9.367 9.35,-6.246 6.22,-12.488 0,-6.242 -6.22,-6.243 -24.92,-12.488 -31.14,-6.242 -12.46,-21.856 -12.46,-24.976 -9.34,-40.582 -6.22,-53.074 -12.46,-28.098 -18.69,-9.3633 0,-15.6094 18.69,-6.246 9.34,-12.4883 0,-12.4883 -12.46,-6.2422 -24.91,-21.85547 -12.45,0 0,21.85547 -404.856,46.832 0,21.8477 6.227,18.7348 -9.344,81.168 -18.684,43.707 -24.914,21.855 0,9.367 -3.113,37.461 -21.801,12.488 -28.027,31.219 -15.57,6.246 0,15.61 -31.145,21.851 -56.055,49.953 -12.457,12.489 -24.914,9.363 -80.972,74.926 -9.34,9.367 -28.027,15.609 -21.801,0 -15.571,9.367 -9.343,15.606 -9.344,21.855 6.23,18.731 24.914,34.344 -6.23,28.093 -6.227,28.098 -12.457,28.102 -52.945,68.679 -12.457,15.61 0,37.464 -12.457,18.727 -12.453,9.367 -12.457,12.489 0,34.343 -6.231,15.61 -9.343,21.851 -3.114,12.488 0,12.485 3.114,15.61 6.23,6.25 37.371,6.24 18.684,12.49 0,6.24 -24.91,18.73 -18.688,31.23 -12.457,28.09 -6.23,28.1 0,40.58 -6.227,28.1 0,9.37 6.227,12.49 15.574,-9.37 18.683,-12.49 6.227,-12.49 9.348,-3.12 15.566,0 0,43.71 -12.457,12.49 -6.227,18.73 0,15.61 18.684,-3.13 18.688,-12.48 0,21.85 -6.227,18.73 -21.801,12.49 -15.574,9.36 -21.797,6.25 -9.344,0 0,-12.49 3.114,-9.37 0,-12.48 3.117,-18.73 -6.231,-3.13 -12.457,-12.48 -12.457,0 -12.457,9.36 -12.4567,6.25 0,21.85 -12.4571,18.73 -6.2265,3.12 -6.2305,12.49 0,34.34 6.2305,0 12.457,6.25 3.1133,18.73 -15.5703,28.1 -15.5743,15.6 -3.1093,12.49 0,18.73 -9.3477,31.22 -9.3398,24.98 -9.3438,21.85 0,43.71 12.457,37.46 3.1133,34.34 6.2305,12.49 -6.2305,24.98 -18.6836,28.09 -6.2304,12.49 0,18.73 -12.45707,18.73 0,31.22 12.45707,53.08 9.3437,21.85 6.2305,12.49 6.2265,0 6.2266,-12.49 3.1172,-15.61 3.1133,-6.24 18.6875,0 6.2265,18.73 12.4571,56.19 15.57,53.07 12.457,56.2 3.114,18.73 0,0 z"
         style="fill:none;stroke:#231f20;stroke-opacity:1;stroke-width:4.16667;stroke-linecap:butt;stroke-linejoin:miter;stroke-miterlimit:4;stroke-dasharray:none"
         id="path7716" /><path
         d="m 117.309,2090.65 563.675,-143.61 -121.453,-568.19 604.159,-949.061 6.23,-12.488 0,-40.59 3.12,-12.481 3.11,-15.613 6.23,-12.488 9.34,-12.488 3.12,-9.364 6.22,-9.367 9.35,-6.246 6.22,-12.488 0,-6.242 -6.22,-6.243 -24.92,-12.488 -31.14,-6.242 -12.46,-21.856 -12.46,-24.976 -9.34,-40.582 -6.22,-53.074 -12.46,-28.098 -18.69,-9.3633 0,-15.6094 18.69,-6.246 9.34,-12.4883 0,-12.4883 -12.46,-6.2422 -24.91,-21.85547 -12.45,0 0,21.85547 -404.856,46.832 0,21.8477 6.227,18.7348 -9.344,81.168 -18.684,43.707 -24.914,21.855 0,9.367 -3.113,37.461 -21.801,12.488 -28.027,31.219 -15.57,6.246 0,15.61 -31.145,21.851 -56.055,49.953 -12.457,12.489 -24.914,9.363 -80.972,74.926 -9.34,9.367 -28.027,15.609 -21.801,0 -15.571,9.367 -9.343,15.606 -9.344,21.855 6.23,18.731 24.914,34.344 -6.23,28.093 -6.227,28.098 -12.457,28.102 -52.945,68.679 -12.457,15.61 0,37.464 -12.457,18.727 -12.453,9.367 -12.457,12.489 0,34.343 -6.231,15.61 -9.343,21.851 -3.114,12.488 0,12.485 3.114,15.61 6.23,6.25 37.371,6.24 18.684,12.49 0,6.24 -24.91,18.73 -18.688,31.23 -12.457,28.09 -6.23,28.1 0,40.58 -6.227,28.1 0,9.37 6.227,12.49 15.574,-9.37 18.683,-12.49 6.227,-12.49 9.348,-3.12 15.566,0 0,43.71 -12.457,12.49 -6.227,18.73 0,15.61 18.684,-3.13 18.688,-12.48 0,21.85 -6.227,18.73 -21.801,12.49 -15.574,9.36 -21.797,6.25 -9.344,0 0,-12.49 3.114,-9.37 0,-12.48 3.117,-18.73 -6.231,-3.13 -12.457,-12.48 -12.457,0 -12.457,9.36 -12.4567,6.25 0,21.85 -12.4571,18.73 -6.2265,3.12 -6.2305,12.49 0,34.34 6.2305,0 12.457,6.25 3.1133,18.73 -15.5703,28.1 -15.5743,15.6 -3.1093,12.49 0,18.73 -9.3477,31.22 -9.3398,24.98 -9.3438,21.85 0,43.71 12.457,37.46 3.1133,34.34 6.2305,12.49 -6.2305,24.98 -18.6836,28.09 -6.2304,12.49 0,18.73 -12.45707,18.73 0,31.22 12.45707,53.08 9.3437,21.85 6.2305,12.49 6.2265,0 6.2266,-12.49 3.1172,-15.61 3.1133,-6.24 18.6875,0 6.2265,18.73 12.4571,56.19 15.57,53.07 12.457,56.2 3.114,18.73 0,0 z"
         style="fill:none;stroke:none"
         id="path7718" /></g></g></svg>