<?xml version="1.0" encoding="UTF-8" standalone="no"?>
<!-- Created with Inkscape (http://www.inkscape.org/) -->

<svg
   xmlns:dc="http://purl.org/dc/elements/1.1/"
   xmlns:cc="http://creativecommons.org/ns#"
   xmlns:rdf="http://www.w3.org/1999/02/22-rdf-syntax-ns#"
   xmlns:svg="http://www.w3.org/2000/svg"
   xmlns="http://www.w3.org/2000/svg"
   xmlns:sodipodi="http://sodipodi.sourceforge.net/DTD/sodipodi-0.dtd"
   xmlns:inkscape="http://www.inkscape.org/namespaces/inkscape"
   version="1.1"
   width="584"
   height="661"
   id="svg2"
   inkscape:version="0.47 r22583"
   sodipodi:docname="preservephiladelphia_e.svg">
  <metadata
     id="metadata10">
    <rdf:RDF>
      <cc:Work
         rdf:about="">
        <dc:format>image/svg+xml</dc:format>
        <dc:type
           rdf:resource="http://purl.org/dc/dcmitype/StillImage" />
      </cc:Work>
    </rdf:RDF>
  </metadata>
  <sodipodi:namedview
     pagecolor="#ffffff"
     bordercolor="#666666"
     borderopacity="1"
     objecttolerance="10"
     gridtolerance="10"
     guidetolerance="10"
     inkscape:pageopacity="0"
     inkscape:pageshadow="2"
     inkscape:window-width="1280"
     inkscape:window-height="946"
     id="namedview8"
     showgrid="false"
     inkscape:zoom="1.0098469"
     inkscape:cx="352.88621"
     inkscape:cy="316.47147"
     inkscape:window-x="0"
     inkscape:window-y="24"
     inkscape:window-maximized="1"
     inkscape:current-layer="svg2" />
  <defs
     id="defs6">
    <inkscape:perspective
       sodipodi:type="inkscape:persp3d"
       inkscape:vp_x="0 : 330.5 : 1"
       inkscape:vp_y="0 : 1000 : 0"
       inkscape:vp_z="584 : 330.5 : 1"
       inkscape:persp3d-origin="292 : 220.33333 : 1"
       id="perspective12" />
  </defs>
  <g
     id="g2821">
    <g
       transform="translate(-0.99025124,-22.77573)"
       id="g2818">
      <path
         d="m 79.690126,642.06685 -5.809875,-3.77582 -11.927788,0.49125 -11.927788,0.49124 -1.990375,-4.38676 c -2.593676,-5.71643 -2.557215,-8.53654 0.128955,-9.97413 l 2.163255,-1.15774 -2.12999,-1.62745 C 47.025025,621.23235 46.075725,619.6 46.086963,618.5 c 0.01124,-1.1 -0.28119,-3.2375 -0.649842,-4.75 C 44.835064,611.27988 45.033151,611 47.383423,611 49.76943,611 50,610.64752 50,607 c 0,-3.54856 0.269168,-4 2.38499,-4 C 54.962807,603 58,599.33607 58,596.22631 c 0,-1.01423 0.660688,-2.71756 1.468197,-3.78518 0.807508,-1.06762 1.482508,-3.00137 1.5,-4.29723 0.01749,-1.29585 1.441465,-4.13594 3.164386,-6.3113 2.73783,-3.45679 2.990079,-4.26797 2.001737,-6.43715 -0.915648,-2.00962 -0.776995,-3.18733 0.728605,-6.18869 1.022699,-2.03872 1.65172,-4.29235 1.397825,-5.00808 -0.253895,-0.71572 0.770539,-3.07933 2.27652,-5.25246 2.567989,-3.70561 2.69792,-4.40153 2.090819,-11.19868 -0.530004,-5.93398 -0.283098,-8.20101 1.362292,-12.50827 C 75.095671,532.34587 76,528.35677 76,526.3746 c 0,-2.02032 1.18174,-5.77519 2.689357,-8.54518 2.593677,-4.76544 2.816035,-4.92042 6.25,-4.35634 3.417042,0.56131 3.630422,0.41726 5.290843,-3.57162 2.097424,-5.03871 1.52186,-6.26045 -2.594721,-5.5078 -4.555798,0.83297 -6.046038,-0.39848 -4.524208,-3.73853 0.667485,-1.46497 0.962888,-2.9143 0.656449,-3.22074 -0.306438,-0.30644 -3.045677,-0.814 -6.087197,-1.12791 -4.570375,-0.47171 -5.623447,-0.94293 -6.068316,-2.71544 -0.296055,-1.17957 -2.164459,-4.0445 -4.152011,-6.36651 -3.104451,-3.62685 -3.628274,-4.96189 -3.716935,-9.47318 -0.06432,-3.27277 0.566448,-6.52809 1.674126,-8.63996 1.410352,-2.68894 1.550751,-3.8859 0.679972,-5.79705 -1.506642,-3.30672 -1.405056,-3.94977 0.974134,-6.16632 1.479352,-1.37823 1.979593,-2.89008 1.75,-5.28895 -0.317061,-3.31276 -0.395843,-3.36331 -5.714281,-3.66628 -2.966034,-0.16897 -5.868534,0.16853 -6.45,0.75 C 54.96504,450.63496 52.160008,450.16749 51,448 c -1.220319,-2.28019 -5.005896,-2.63778 -8.017025,-0.75729 -1.560256,0.97439 -2.366979,0.98167 -3.736431,0.0337 C 36.279264,445.22242 25.997227,440 24.920526,440 c -2.118403,0 -8.133991,-7.01261 -8.889623,-10.36298 -0.699653,-3.10217 -0.443846,-3.80341 2.341823,-6.41962 C 20.092727,421.60203 26,417.68177 31.5,414.5057 37,411.32963 46.225,405.27241 52,401.04521 c 15.103759,-11.0557 35.485725,-25.09177 42.811184,-29.48199 3.471151,-2.0803 9.799246,-6.32055 14.062426,-9.42279 4.26319,-3.10224 8.62315,-6.17962 9.68882,-6.83864 17.1526,-10.60726 14.70936,-9.96561 25.29166,-6.64224 0.90525,0.2843 -0.71046,-0.83013 -3.59046,-2.4765 -7.55298,-4.3177 -12.7079,-8.56396 -21.76363,-17.92731 -4.4,-4.54947 -11.89196,-11.08066 -16.64881,-14.51375 C 88.051256,303.78234 48.486032,268.48812 40.218813,258.76271 36.461665,254.34288 36.108701,253.52894 37.335241,252.1132 38.10393,251.22594 52.78672,232.725 69.963664,211 c 17.176943,-21.725 31.632796,-39.64858 32.124116,-39.83018 0.66158,-0.24453 48.61667,32.82907 56.5389,38.99366 0.95958,0.74669 6.91254,-6.07034 20.97966,-24.0249 0.15575,-0.19879 25.57342,17.48249 56.48372,39.29172 l 56.20055,39.65314 9.1047,-8.8363 c 5.00758,-4.85996 10.99317,-10.29752 13.30131,-12.08347 2.30815,-1.78595 6.24629,-5.97383 8.75143,-9.3064 l 4.5548,-6.05923 -7.75143,-5.97759 c -4.26328,-3.28767 -7.87785,-6.32151 -8.03237,-6.74187 -0.36269,-0.98665 19.14813,-26.64562 26.57688,-34.95165 3.13724,-3.50772 10.78445,-13.6316 16.99379,-22.4975 13.86739,-19.80029 24.542,-32.00745 44.83854,-51.27598 C 409.2335,99.184051 422.16323,86.2 429.361,78.5 c 7.19777,-7.7 13.574,-13.952015 14.16939,-13.893367 0.5954,0.05865 7.10243,4.282686 14.46007,9.386751 l 13.37753,9.280118 2.06601,-2.492798 c 1.1363,-1.371039 2.56308,-3.341968 3.17063,-4.379843 0.9718,-1.660142 1.31166,-1.715223 2.82642,-0.458084 1.65912,1.376944 1.62122,5.151484 -0.0967,9.628237 C 478.92073,86.64897 479.6835,87 482.43952,87 c 3.02582,0 3.94617,0.520478 5.35699,3.029505 1.40934,2.506393 2.13517,2.917718 4.20349,2.382114 5.10327,-1.321524 5.4857,-1.107782 5.80285,3.243237 0.35446,4.862904 2.27237,5.816144 8.69715,4.322675 6.00692,-1.396336 6.48648,-1.271621 10.18349,2.648339 l 3.41963,3.62588 2.35923,-2.21638 c 3.17434,-2.98214 5.44421,-2.30603 7.8535,2.33926 1.60993,3.10406 1.77835,4.24489 0.84686,5.73643 -0.63949,1.02399 -1.16271,3.41635 -1.16271,5.31635 0,1.90001 -0.45,3.73267 -1,4.07259 -1.89368,1.17036 -0.99254,4.43891 2.23832,8.11865 2.90392,3.30738 3.2764,4.44249 3.60717,10.99261 l 0.36885,7.30437 3.64283,1.15253 c 5.46509,1.72905 6.2464,3.21577 4.60642,8.76534 -0.75846,2.56658 -2.04466,8.4915 -2.85822,13.1665 -1.73459,9.96748 -5.64726,19.1422 -9.13915,21.43018 -1.36113,0.89184 -3.93535,1.89822 -5.7205,2.23639 -4.35168,0.82436 -5.74572,2.07584 -5.74572,5.15812 0,1.90851 -1.98526,4.48309 -7.62944,9.89418 -7.42922,7.12243 -7.61552,7.41817 -7.09894,11.26952 0.70594,5.26319 -0.62773,10.76308 -3.18845,13.14876 -3.35178,3.12265 -2.43313,7.86285 1.52382,7.86285 1.31615,0 2.39301,0.45 2.39301,1 0,1.40334 -3.29497,1.24656 -5.25414,-0.25 -3.2274,-2.46533 -3.16137,-6.20717 0.17662,-10.00893 2.20364,-2.5098 3.07752,-4.5157 3.07752,-7.06407 0,-1.95743 -0.36366,-3.78372 -0.80814,-4.05842 -0.44448,-0.27471 -3.70698,1.33433 -7.25,3.57562 -3.54302,2.2413 -10.94186,6.20476 -16.44186,8.80769 -8.83339,4.18048 -11.04968,5.79723 -18.99771,13.8585 -4.94875,5.01924 -9.11451,9.47626 -9.25724,9.90447 -0.14274,0.42821 2.62663,3.63907 6.15416,7.13524 l 6.41368,6.35668 3.08417,-5.37839 c 3.2272,-5.62781 3.8151,-8.32022 2.05438,-9.4084 -1.2284,-0.7592 0.37847,-3.041 3.20785,-4.55524 1.5126,-0.80952 3.25091,0.39406 10.18816,7.0541 l 8.3644,8.03015 6.45333,-5.91332 c 3.54934,-3.25232 7.28252,-7.75209 8.29596,-9.99949 1.01343,-2.24741 2.22427,-4.08619 2.69073,-4.08619 3.00911,0 -4.49385,10.59738 -13.06525,18.45372 -4.17264,3.82454 -16.36162,15.51453 -27.08662,25.97775 -10.725,10.46322 -20.31604,19.64205 -21.31341,20.3974 -0.99738,0.75536 -3.66162,1.55139 -5.92052,1.76897 -2.25891,0.21758 -5.17589,1.09589 -6.48217,1.9518 -1.30629,0.85591 -3.21668,1.28908 -4.24533,0.9626 -1.02864,-0.32648 -2.15968,-0.12529 -2.51343,0.44708 -0.35375,0.57238 -1.40412,1.04104 -2.33416,1.04147 -5.14219,0.002 -29.6832,15.26807 -35.36301,21.99747 -7.0966,8.40801 -9.82797,12.3133 -9.82797,14.05194 0,1.02354 -1.12428,3.5177 -2.4984,5.54257 -1.37411,2.02488 -2.96069,5.53236 -3.52572,7.79441 -0.56502,2.26205 -1.69075,5.59059 -2.5016,7.39675 -0.81085,1.80616 -1.47428,4.54022 -1.47428,6.07568 0,1.68491 -0.99118,3.72292 -2.5,5.14039 -1.375,1.29175 -2.5,3.33399 -2.5,4.53831 0,1.45673 -1.42261,3.15573 -4.25,5.07569 -2.3375,1.5873 -4.84464,3.4485 -5.57143,4.136 -0.72678,0.6875 -1.76584,1.25 -2.30902,1.25 -0.54317,0 -0.70947,0.45 -0.36955,1 1.06335,1.72053 -0.51033,3.23631 -2.04104,1.96594 -2.04488,-1.6971 -5.45737,-0.23831 -5.18649,2.21715 0.17461,1.58291 -0.70271,2.39927 -3.77247,3.51035 -5.10108,1.8463 -15.42856,4.28443 -22.5,5.31184 -7.25014,1.05338 -20.78917,6.16122 -20.2855,7.65308 0.59193,1.75329 -1.81228,2.79653 -2.81099,1.21976 -0.6321,-0.99796 -0.87711,-1.0333 -0.8882,-0.12812 -0.008,0.6875 -0.85844,1.25 -1.88893,1.25 -1.03049,0 -3.84279,1.8 -6.24956,4 -2.40676,2.2 -5.27613,4.0067 -6.37638,4.01489 C 277.41175,433.03789 261,445.67423 261,448.0294 c 0,1.08498 -0.67413,1.9706 -1.5,1.9706 -0.825,0 -1.5,0.675 -1.5,1.5 0,0.825 -0.45,1.5 -1,1.5 -0.55,0 -1,0.73789 -1,1.63976 0,0.90186 -0.7875,2.23755 -1.75,2.96819 -1.06875,0.8113 -1.26339,1.34082 -0.5,1.36025 1.9543,0.0497 1.46528,3.02992 -0.5,3.04711 -1.50132,0.0131 -1.53685,0.15794 -0.25,1.01901 1.295,0.86651 1.22666,1.21398 -0.5,2.54244 -1.87389,1.44172 -1.88965,1.6013 -0.25,2.53069 2.43324,1.3792 2.18546,2.8701 -0.5,3.00855 -1.69317,0.0873 -1.81691,0.22918 -0.5,0.57333 2.1344,0.55777 2.34228,3.31067 0.25,3.31067 -1.15784,0 -1.50311,1.31162 -1.51365,5.75 -0.008,3.1625 -0.27427,6.72146 -0.59279,7.90881 -0.41771,1.55709 -0.0854,2.2539 1.19225,2.5 1.67091,0.32184 1.6652,0.44737 -0.10063,2.21318 -1.82935,1.82932 -1.82906,1.90339 0.0125,3.25 1.8393,1.34492 1.83794,1.37991 -0.0566,1.45696 -1.06762,0.0434 -1.37863,0.30592 -0.69113,0.58333 1.48421,0.59889 1.68935,3.33772 0.25,3.33772 -0.55,0 -1,0.9 -1,2 0,1.1 0.45,2 1,2 0.55,0 1,0.675 1,1.5 0,0.825 -0.45,1.5 -1,1.5 -1.58972,0 -1.15832,4.00202 0.5,4.63837 1.778,0.68229 2.02418,3.36163 0.30887,3.36163 -0.65512,0 -0.31762,0.675 0.75,1.5 1.88395,1.45581 1.88663,1.54223 0.091,2.93347 -2.14883,1.66488 -1.39747,3.56653 1.40916,3.56653 1.06754,0 1.94098,0.675 1.94098,1.5 0,0.825 -0.3876,1.5 -0.86133,1.5 -0.47373,0 -0.64627,1.125 -0.38342,2.5 0.29561,1.54639 1.15387,2.5 2.25004,2.5 1.25587,0 1.97695,1.09179 2.4752,3.74771 0.38669,2.06124 1.19534,4.05194 1.79699,4.42378 0.76901,0.47528 0.70538,1.14423 -0.21423,2.25229 -1.09948,1.32481 -1.04935,1.57622 0.31431,1.57622 2.18217,0 2.07681,2.73461 -0.12756,3.31067 -1.07666,0.28137 -0.6919,0.50196 1,0.57333 2.36598,0.0998 2.75,0.53683 2.75,3.12957 0,1.65746 -0.5625,3.92119 -1.25,5.03051 -1.00687,1.62464 -0.99738,2.17423 0.0488,2.82559 3.73236,2.32387 -2.2833,25.96189 -6.93967,27.26882 -1.59866,0.44871 -1.79501,0.69428 -0.60911,0.76183 1.90955,0.10877 2.02025,0.48936 1.11971,3.84968 -0.474,1.76876 -1.3801,2.28205 -4.23634,2.39983 -3.02084,0.12457 -3.16976,0.22007 -0.88337,0.56642 1.5125,0.22913 2.75,0.62963 2.75,0.89001 0,1.21613 -4.02133,8.16655 -5.3749,9.28991 -0.83659,0.69431 -7.50698,1.89145 -14.82309,2.66032 -7.3161,0.76886 -15.10201,1.8435 -17.30201,2.38808 -2.2,0.54458 -7.90118,1.29166 -12.6693,1.66017 -7.28902,0.56336 -8.74684,0.96659 -9.15638,2.53265 -0.68013,2.60085 -3.44501,2.33096 -3.96859,-0.38739 -0.30187,-1.56731 -0.47469,-1.22851 -0.56955,1.11663 -0.12051,2.97933 -0.39502,3.29727 -2.38618,2.76366 -1.2375,-0.33164 -2.8125,-0.60913 -3.5,-0.61664 -0.6875,-0.008 -1.25,-1.13865 -1.25,-2.51365 0,-1.375 -0.48575,-2.5 -1.07946,-2.5 -0.66829,0 -0.83934,1.0932 -0.44908,2.87005 0.51459,2.34294 0.25369,2.96856 -1.42055,3.40638 -1.64828,0.43104 -2.05091,0.0639 -2.05091,-1.87005 0,-2.82753 -2.41341,-3.20597 -5.71185,-0.89566 -1.19238,0.83518 -2.41024,1.10074 -2.7235,0.59388 -0.31165,-0.50426 -1.51225,-0.66956 -2.668,-0.36732 -2.83426,0.74117 -3.86287,-1.19349 -3.88134,-7.30019 -0.0129,-4.2691 0.43058,-5.4901 2.82859,-7.78754 1.56415,-1.49854 4.51479,-2.99578 6.55699,-3.32718 3.21448,-0.52164 3.78823,-0.31517 4.27273,1.53754 0.46283,1.76987 1.30645,2.14009 4.87659,2.14009 3.96602,0 4.34267,-0.22355 4.63337,-2.75 0.24853,-2.15997 0.90645,-2.81789 3.06642,-3.06642 5.0495,-0.58101 2.82729,-2.18385 -3,-2.16385 -3.78089,0.013 -8.6444,1.04034 -14.20195,3 -9.36962,3.30386 -13.81472,3.75188 -14.68642,1.48027 -0.42215,-1.1001 -2.1573,-1.5 -6.50846,-1.5 -13.52585,0 -22.2364,-9.54011 -22.31606,-24.44136 l -0.0371,-6.94137 6.83193,-1.46538 6.83193,-1.46539 2.27428,-5.14254 c 3.57961,-8.09414 4.79875,-12.46397 4.17296,-14.95733 -0.50901,-2.02807 -1.39227,-2.39047 -7.30168,-2.99591 -3.69744,-0.37881 -7.30465,-1.1718 -8.01602,-1.76218 -1.87585,-1.55682 -1.58543,-7.85644 0.54709,-11.8671 1.01227,-1.90379 3.5138,-6.16144 5.55895,-9.46144 3.61174,-5.82781 3.69945,-6.19422 3.05622,-12.76789 -0.54172,-5.53624 -0.34229,-7.26509 1.09585,-9.5 1.75085,-2.72085 1.74973,-2.72473 -0.27059,-0.94126 -1.61867,1.42891 -2.12021,3.37207 -2.48158,9.61451 -0.41292,7.13291 -0.81439,8.36499 -4.54715,13.95484 -2.25183,3.37214 -4.63229,7.76147 -5.2899,9.75406 -1.35032,4.09152 -0.78589,11.96666 0.98354,13.7227 0.67267,0.66759 4.23532,1.16304 8.36304,1.16304 l 7.19113,0 -0.33764,2.87268 c -0.54121,4.60465 -3.0586,10.88797 -5.33157,13.30743 -1.20541,1.28311 -4.44453,2.76139 -7.59584,3.46662 -4.77521,1.06864 -5.67356,1.65877 -6.86459,4.50929 -1.87704,4.4924 -1.70256,8.70178 0.67514,16.28783 1.11084,3.54411 1.78519,7.05498 1.49856,7.80193 -0.29115,0.75873 -0.0717,1.08033 0.49719,0.72873 0.56009,-0.34616 2.57232,0.73504 4.47163,2.40265 1.9206,1.68631 6.38351,3.93708 10.05536,5.0712 11.66021,3.60147 13.92362,5.67527 14.96836,13.71439 l 0.62863,4.83725 -7.941,8 c -4.36755,4.4 -8.77171,9.29889 -9.78702,10.88643 -1.01531,1.58754 -3.33208,3.50735 -5.14837,4.26625 -1.8163,0.75889 -4.4987,2.7225 -5.9609,4.36356 -3.17762,3.56634 -4.32323,3.75996 -4.34159,0.73376 -0.0382,-6.28773 -0.47702,-6.57863 -9.32653,-6.18217 -4.4879,0.20106 -10.81347,-0.10125 -14.05683,-0.6718 l -5.897,-1.03735 -5.13444,5.07066 c -2.823943,2.78886 -5.57029,5.03526 -6.102995,4.99199 -0.532705,-0.0433 -3.582999,-1.77778 -6.778429,-3.85448 l 1e-5,0 z m 12.823094,-3.07991 5.076111,-5.01305 5.341829,1.01305 c 2.938,0.55718 9.36072,1.01306 14.27272,1.01306 8.03338,0 8.8796,-0.17587 8.42051,-1.75 -0.28071,-0.9625 -1.05196,-4.675 -1.71388,-8.25 -0.66192,-3.575 -1.34547,-6.67041 -1.51901,-6.87868 -0.17354,-0.20827 -10.98126,-2.09059 -24.017169,-4.18294 -17.883512,-2.87041 -24.365441,-4.29502 -26.405789,-5.80352 -1.896995,-1.40251 -3.019093,-1.68431 -3.759298,-0.9441 -0.740205,0.7402 -1.973609,0.40115 -4.132199,-1.1359 -3.891347,-2.77088 -4.110713,-7.01087 -0.600804,-11.6126 2.219782,-2.91028 2.30019,-3.31407 0.776381,-3.89881 C 62.297406,590.79316 60,593.35565 60,596.28676 60,599.07338 56.162726,604 53.992271,604 c -1.440826,0 -1.942968,0.86302 -2.181906,3.75 -0.228753,2.76392 -0.90562,4.01112 -2.574091,4.74304 -1.278529,0.56086 -2.040147,1.57567 -1.75,2.33179 C 47.768823,615.56114 48,617.25177 48,618.58179 48,619.9821 48.586363,621 49.393011,621 c 3.394512,0 2.135745,4.99041 -1.570374,6.22579 -0.855532,0.28518 -0.492367,1.85889 1.232143,5.33928 2.325884,4.69409 2.662519,4.95042 6.897714,5.25232 2.448871,0.17457 7.26284,-0.17201 10.697707,-0.77016 l 6.245213,-1.08756 6.302293,3.95029 c 3.466261,2.17266 6.738143,3.98173 7.270848,4.02016 0.532705,0.0384 3.252804,-2.186 6.044665,-4.94318 z M 132.18237,639.5 c 1.63409,-1.375 3.83655,-2.5 4.89436,-2.5 1.0578,0 1.92327,-0.47436 1.92327,-1.05413 0,-0.57977 4.33701,-5.52363 9.6378,-10.98635 l 9.63779,-9.93221 -0.63021,-4.76366 c -0.78525,-5.93553 -3.61129,-8.62325 -11.43056,-10.87112 -7.05683,-2.02868 -10.56442,-3.77804 -13.15877,-6.56275 l -2.00197,-2.14885 -5.28259,3.50745 c -10.34632,6.86957 -11.4196,7.21772 -16.39404,5.31797 -5.63788,-2.15313 -5.61857,-3.6382 0.0372,-2.86299 3.87451,0.53106 5.14389,0.16213 10.37425,-3.01514 8.71166,-5.29206 8.70083,-5.26808 6.18992,-13.69923 -3.0156,-10.12584 -1.24963,-19.4189 3.89774,-20.51106 8.1073,-1.72021 11.33333,-3.63728 13.11447,-7.79329 0.97223,-2.26855 2.05554,-5.36214 2.40737,-6.87464 l 0.63967,-2.75 -6.99599,0 c -6.2765,0 -7.15734,-0.24623 -8.56476,-2.39423 -3.8964,-5.94666 -2.4194,-14.40269 4.35128,-24.91165 3.64278,-5.65407 4.02275,-6.88296 4.35809,-14.09484 l 0.36737,-7.90073 -5.77705,6.37931 C 129.30203,504.0194 128,506.17036 128,508.62159 c 0,1.89034 0.60394,3.39619 1.5,3.74004 2.3573,0.90458 1.76598,3.90144 -1.46858,7.44282 -1.63272,1.7876 -3.75735,5.60039 -4.7214,8.47287 -0.96406,2.87247 -5.57247,12.77215 -10.24091,21.99928 -6.30691,12.46553 -8.86725,16.6311 -9.96359,16.2104 -0.93732,-0.35969 -3.955531,1.89481 -8.274846,6.18103 l -6.799339,6.74724 0.624239,5.3113 c 0.617886,5.25724 0.557792,5.4111 -5.904728,15.11743 l -6.528968,9.80614 23.832242,3.79638 23.83224,3.79637 1.11445,5.12856 c 0.61295,2.8207 1.63997,8.39105 2.28226,12.37855 0.6423,3.9875 1.3389,7.25 1.54801,7.25 0.20912,0 1.71719,-1.125 3.35129,-2.5 z m 54.4218,-26.22917 c -0.3323,-0.33229 -0.56864,0.25834 -0.52522,1.3125 0.048,1.16495 0.28494,1.4019 0.60416,0.60417 0.28887,-0.72187 0.25335,-1.58438 -0.0789,-1.91667 l -4e-5,0 z m -18.78462,-2.09916 c 0.43589,-2.96234 2.00045,-2.73702 2.78818,0.40155 0.45993,1.8325 0.95477,2.26428 1.71905,1.5 0.59027,-0.59027 2.53166,-1.07322 4.3142,-1.07322 1.78254,0 3.4542,-0.34499 3.7148,-0.76664 0.26059,-0.42166 6.09182,-0.87379 12.95827,-1.00474 6.86646,-0.13096 16.2423,-0.93122 20.83521,-1.77836 4.59291,-0.84714 13.52574,-2.03113 19.85074,-2.63108 12.16408,-1.1538 13.96643,-1.91979 16.62806,-7.06682 C 251.99345,596.112 251.95198,596 249.60901,596 c -1.34329,0 -2.59234,-0.43273 -2.77568,-0.96163 -0.59973,-1.73016 -22.68816,-3.1455 -37.97828,-2.4335 -13.1501,0.61234 -14.74851,0.87973 -15.18262,2.53976 C 193.35717,596.35017 192.27884,597 190.59362,597 188.37849,597 188,597.43779 188,600 c 0,2.93411 -0.11002,3 -5.00979,3 -3.7723,0 -5.43278,-0.49403 -6.72224,-2 -2.19925,-2.56854 -5.30871,-2.5424 -8.63311,0.0726 -2.27699,1.79108 -2.63486,2.82105 -2.63486,7.58333 0,3.96149 0.35142,5.39502 1.25,5.0991 0.6875,-0.22642 1.3938,-1.38892 1.56955,-2.58334 l 0,-2e-5 z M 80.867868,599.70038 C 86.171047,591.65791 87,589.77043 87,585.7379 c 0,-4.21564 -3.161039,-15.04231 -4.974937,-17.03934 -0.400371,-0.4408 -2.68032,2.1467 -5.066552,5.75 -4.621262,6.97826 -4.671323,7.01864 -6.930558,5.58988 -1.086711,-0.68725 -2.188589,-0.0943 -4.209359,2.26531 -3.430141,4.00524 -3.527635,6.41607 -0.318594,7.8782 3.159883,1.43974 3.135893,1.74287 -0.5,6.31805 -1.65,2.07626 -3,4.56138 -3,5.52249 0,2.36751 4.364607,5.2129 5.797788,3.77972 0.756401,-0.7564 1.888012,-0.45533 3.884756,1.03357 1.549601,1.15547 2.870497,2.11512 2.935324,2.13254 0.06483,0.0174 2.877328,-4.15315 6.25,-9.26794 z m 34.319632,-1.38349 c -0.72187,-0.28887 -1.58437,-0.25335 -1.91667,0.0789 -0.33229,0.33229 0.25834,0.56864 1.3125,0.52522 1.16495,-0.048 1.4019,-0.28494 0.60417,-0.60416 l 0,4e-5 z M 167.52157,548 c 0.89315,-6.875 1.79816,-13.175 2.01111,-14 0.25656,-0.99388 -2.17049,-3.01837 -7.19306,-6 C 154.32782,523.24382 150,518.3159 150,513.94937 c 0,-4.60831 2.89949,-12.50632 5.48193,-14.9324 1.38494,-1.30108 2.51807,-2.67602 2.51807,-3.05543 0,-0.3794 -1.96904,-1.44181 -4.37565,-2.3609 -3.56687,-1.3622 -4.86073,-1.45006 -7,-0.47534 C 144.08697,494.2814 144,494.60704 144,502.95143 l 0,8.6304 -5,7.91817 c -3.93687,6.23455 -5,8.80573 -5,12.09245 0,4.75556 1.05155,5.37028 9.22695,5.3939 3.90953,0.0113 5.0056,0.43894 6.33838,2.47301 1.9233,2.93533 1.415,6.00172 -2.56451,15.47057 -2.94861,7.01594 -6.63727,10.0653 -12.17939,10.06852 -6.34384,0.004 -7.12723,7.24211 -1.94422,17.96429 3.32782,6.88431 8.98371,10.59482 17.31393,11.35872 5.53632,0.50769 5.69953,0.4513 6,-2.07267 0.52586,-4.41738 2.80886,-3.94227 2.80886,0.58454 0,2.30889 0.52847,4.17792 1.25,4.42083 0.92109,0.3101 1.82857,-4.47006 3.44883,-18.16666 1.20935,-10.22313 2.92958,-24.2125 3.82274,-31.0875 z m 3.85744,46.35979 c 3.91655,-1.45212 10.27099,-2.91462 14.12099,-3.25 l 7,-0.60979 1,-9.5 1,-9.5 5.20864,0.33887 c 5.89262,0.38337 5.62901,0.77716 6.8238,-10.19347 l 0.63761,-5.8546 5.16498,0.57218 c 9.72626,1.07749 42.71171,2.92361 43.21658,2.41874 0.27739,-0.27739 0.0529,-1.69175 -0.49888,-3.14303 C 254.10047,553.13405 253.69398,553 247.05151,553 l -6.99799,0 0.49091,-16.25 c 0.32061,-10.61287 0.16226,-15.5562 -0.45648,-14.25 -0.52106,1.1 -0.97901,8.1875 -1.01766,15.75 L 239,552 l -7.75,-0.0183 c -7.49636,-0.0177 -28.07449,-2.47284 -29.0699,-3.46825 -0.26912,-0.26912 -1.7e-4,-3.97516 0.59768,-8.23565 0.59784,-4.26049 0.89242,-7.94092 0.6546,-8.17873 -0.96157,-0.96157 -1.61658,1.05063 -2.62087,8.05136 -0.57989,4.04227 -1.33721,7.63985 -1.68293,7.99462 -0.34572,0.35477 -4.56608,0.10433 -9.37858,-0.55652 l -8.75,-1.20154 0,3.22706 c 0,3.58036 0.29918,3.71184 11.3027,4.96745 6.43986,0.73484 6.00525,-0.21998 4.17294,9.16766 -0.62385,3.19628 -0.70204,3.23757 -4.80491,2.538 -7.83604,-1.33612 -10.13838,-1.01492 -10.49037,1.46354 -0.33574,2.36407 -0.74079,2.38983 -11.43036,0.72708 -1.5125,-0.23527 -2.7718,-0.32651 -2.79844,-0.20276 -0.61733,2.86724 -3.43234,28.725 -3.12715,28.725 0.23849,0 3.63806,-1.1881 7.5546,-2.64021 l 0,-2e-5 z M 249,591 c 0,-0.55 1.4625,-1.05324 3.25,-1.11831 l 3.25,-0.11832 -2.9433,-0.63168 c -3.9172,-0.8407 -3.8479,-2.555 0.11883,-2.93949 3.98339,-0.38611 4.54096,-1.11601 7.31907,-9.58098 2.0568,-6.2671 2.11393,-6.97098 0.63311,-7.79969 -2.37585,-1.32959 -2.00411,-4.46588 0.62229,-5.25009 2.18424,-0.65219 2.19155,-0.6968 0.25,-1.52631 -2.73455,-1.1683 -51.71708,-4.23344 -52.58276,-3.29042 -0.38135,0.41541 -1.00455,3.79279 -1.38489,7.50529 l -0.69154,6.75 5.3296,0.0876 c 2.93127,0.0482 7.57959,0.38568 10.32959,0.75 l 5,0.66239 -0.35002,8.19711 -0.35002,8.19711 5.85002,0.36381 C 245.09178,592.03176 249,591.97009 249,591 z m -23.49405,-7.05923 c 0.38991,-3.88257 0.48007,-7.28808 0.20035,-7.5678 -0.27972,-0.27972 -5.16557,-0.9147 -10.85744,-1.41107 -5.69187,-0.49638 -12.22108,-1.12673 -14.50934,-1.4008 l -4.16048,-0.4983 -0.63121,5.2186 c -0.34716,2.87023 -0.877,6.9061 -1.17742,8.9686 l -0.54621,3.75 15.48641,0 15.48641,0 0.70893,-7.05923 z m -148.996542,-11.95413 4.373183,-6.21047 -2.085767,-5.13808 C 77.649653,557.81214 76.66357,554.825 76.605529,554 76.547488,553.175 82.2375,547.11565 89.25,540.53478 96.2625,533.95391 102,528.28727 102,527.94225 c 0,-0.58674 -18.723486,-5.93775 -21.988936,-6.28426 -1.089571,-0.11561 -1.663616,1.31723 -2.140182,5.34201 -0.358185,3.025 -1.429932,7.3 -2.38166,9.5 -1.370611,3.16829 -1.599776,5.57226 -1.102135,11.56156 0.600689,7.2295 0.502181,7.73067 -2.243229,11.41273 -1.579329,2.11815 -2.669049,4.62538 -2.421598,5.57163 0.24745,0.94625 -0.282218,3.13624 -1.177042,4.86664 -0.894823,1.7304 -1.315115,3.69546 -0.93398,4.36681 1.216291,2.14243 3.695694,4.74703 4.11741,4.32531 0.224168,-0.22416 2.375509,-3.20228 4.78076,-6.61804 z m 26.637602,-8.51701 c 0.74414,0.39323 -0.55922,-1.14256 -2.89637,-3.41286 -3.664631,-3.55981 -4.533458,-3.97578 -6.313924,-3.0229 -1.482141,0.79322 -2.432254,0.79976 -3.36796,0.0232 -0.960752,-0.79735 -1.652272,-0.66136 -2.630485,0.51732 -0.881609,1.06227 -2.44723,1.46827 -4.664017,1.20947 -2.688804,-0.3139 -3.22471,-0.088 -2.759153,1.16329 0.317777,0.85407 1.999269,5.04982 3.736649,9.32389 l 3.158872,7.77103 7.191698,-7.1437 c 4.740624,-4.70898 7.65282,-6.90002 8.54469,-6.42874 z m 77.21242,-1.63441 c 0.35439,-3.39062 0.41798,-6.39114 0.1413,-6.66782 -0.27667,-0.27668 -2.97049,-0.70767 -5.98625,-0.95776 -6.15156,-0.51013 -6.00744,-0.66504 -6.96047,7.48156 l -0.6073,5.1912 4.27665,0.38409 c 2.35215,0.21125 5.22503,0.46271 6.38418,0.5588 1.87282,0.15525 2.17931,-0.5119 2.75189,-5.99007 z M 195.25988,561.25 c 0.26329,-2.0625 0.20002,-4.03041 -0.14059,-4.37314 -0.34061,-0.34272 -3.19277,-0.87126 -6.33813,-1.17453 l -5.71885,-0.55139 -0.65119,3.47116 c -0.35816,1.90913 -0.41617,3.70619 -0.12891,3.99344 0.4438,0.4438 7.67546,1.88706 11.35838,2.26684 0.62733,0.0647 1.35601,-1.56988 1.61929,-3.63238 z M 112.34353,548.60785 C 116.00459,541.79217 119,535.30909 119,534.20098 c 0,-1.18116 -1.98239,-3.67449 -4.79138,-6.02631 l -4.79138,-4.01157 -12.95862,11.98527 c -19.403856,17.94641 -18.994867,17.50057 -17.598026,19.18366 1.928201,2.32334 6.886882,2.60449 8.792742,0.49854 1.2098,-1.33682 1.993021,-1.53903 2.934534,-0.75764 0.897846,0.74514 1.872074,0.75128 3.237732,0.0204 1.600593,-0.85662 2.741082,-0.41933 6.313918,2.4209 2.39827,1.90649 4.62757,3.47072 4.95401,3.47605 0.32644,0.005 3.58894,-5.56675 7.25,-12.38243 z m 66.83669,0.97415 c 0.39021,-3.34246 0.30429,-3.43222 -3.88766,-4.06084 -5.2556,-0.78812 -6.29256,-0.21555 -6.29256,3.4745 0,2.96422 0.22948,3.07259 8.14059,3.8443 1.16582,0.11373 1.75607,-0.8291 2.03963,-3.25796 z M 258.5,551 c 2.42542,-0.61716 2.56906,-0.78603 0.75,-0.88169 -2.32972,-0.1225 -3.25527,-3.06733 -1,-3.1817 0.6875,-0.0349 0.19047,-0.48776 -1.10452,-1.00644 -1.43259,-0.57379 -2.14254,-1.49546 -1.81314,-2.35385 0.29776,-0.77594 -0.10521,-1.65892 -0.89548,-1.96218 C 253.52914,541.26582 253,539.63311 253,537.18061 c 0,-4.32938 -1.72069,-10.0338 -3.59339,-11.91275 -0.67542,-0.67768 -1.38072,-1.6307 -1.56732,-2.11782 -0.18661,-0.48712 -1.28335,-1.17876 -2.43721,-1.53698 -2.004,-0.62214 -2.12688,-0.21396 -2.74483,9.11782 -1.16749,17.63072 -0.9787,20.0681 1.59275,20.56339 3.58081,0.68969 10.98389,0.53681 14.25,-0.29427 z M 237,544.06739 c 0,-7.76033 0.32961,-7.43678 -8.75,-8.58889 l -5.25,-0.66618 0,6.01205 c 0,3.30663 -0.26251,6.69615 -0.58336,7.53227 -0.58534,1.52536 1.25902,1.9271 11.33336,2.46865 L 237,551 l 0,-6.93261 z M 221.25133,542.25 c 0.28289,-4.2625 0.42757,-7.852 0.32151,-7.97666 -0.64335,-0.75622 -15.06456,-2.1774 -15.67778,-1.54502 -0.41156,0.42442 -1.05862,3.97489 -1.4379,7.88991 l -0.68961,7.11824 7.86622,0.99029 c 4.32643,0.54465 8.14455,1.05395 8.48472,1.13176 0.34017,0.0778 0.84995,-3.34602 1.13284,-7.60852 z m -22.8649,2 c 0.29994,-1.5125 1.0697,-6.51198 1.71057,-11.10995 1.28294,-9.20441 0.91165,-10.09479 -4.222,-10.12474 -1.44375,-0.008 -3.95307,-0.28092 -5.57627,-0.60556 l -2.95126,-0.59026 -1.60462,11.32604 c -0.88255,6.22931 -1.44016,11.49049 -1.23914,11.69151 0.30515,0.30515 7.99844,1.59394 12.16683,2.0382 0.6438,0.0686 1.41595,-1.11274 1.71589,-2.62524 z m -14.32665,-11.07407 c 1.76555,-12.57628 2.30012,-11.48483 -6.18844,-12.63495 l -4.62866,-0.62713 -1.16807,8.29307 c -0.64244,4.5612 -1.41672,9.72681 -1.72063,11.47914 -0.529,3.05014 -0.38836,3.21296 3.29672,3.81659 2.11712,0.34679 4.5243,0.77056 5.3493,0.94172 3.07868,0.63869 3.52894,-0.36405 5.05978,-11.26844 z M 237.43083,528.75 c 1.95036,-19.43517 2.03919,-17.59393 -0.88414,-18.32764 -1.45191,-0.3644 -2.88346,-0.41893 -3.18122,-0.12116 -0.53703,0.53703 -3.30871,18.65759 -3.34603,21.87548 -0.0187,1.6083 1.5937,2.45881 5.13237,2.70732 1.31131,0.0921 1.78111,-1.17237 2.27902,-6.134 z m -9.67462,1.67288 c -0.23132,-0.23132 -2.48554,-0.80636 -5.00939,-1.27787 -3.99686,-0.74669 -4.64943,-0.62544 -5.05878,0.93994 -0.38911,1.48796 0.41464,1.94057 4.67099,2.63037 4.01301,0.65035 5.21522,0.5364 5.47937,-0.51935 0.18612,-0.74388 0.14913,-1.54177 -0.0822,-1.77309 l 1e-5,0 z M 216.18045,528.75 c 0.23126,-1.62836 0.89487,-2.17141 2.40187,-1.96555 1.93328,0.26409 2.16233,-0.45165 3.20008,-9.99992 0.61476,-5.65641 0.75189,-10.65024 0.30472,-11.09741 -0.95781,-0.95781 -15.06434,-3.04324 -15.77542,-2.33215 -0.26779,0.26778 -1.11287,5.13496 -1.87796,10.81596 -0.76509,5.68099 -1.60897,11.5393 -1.87529,13.01848 -0.43301,2.40503 -0.14448,2.73176 2.72867,3.08996 8.68563,1.08285 10.5597,0.81974 10.89333,-1.52937 z m -94.65714,-0.82344 c 0.43279,-1.36361 0.0933,-2.4864 -0.99161,-3.27972 -1.35358,-0.98976 -1.45518,-1.7179 -0.56605,-4.05649 1.07439,-2.82585 1.05622,-2.84472 -2.12538,-2.2084 -1.76497,0.35299 -4.03839,1.39236 -5.05205,2.30971 -1.77407,1.60551 -1.70347,1.8108 1.88733,5.48812 4.21762,4.31923 5.89545,4.74723 6.84776,1.74678 z m 48.48386,1.82344 c 0.004,-0.1375 0.90394,-6.93644 2,-15.10875 C 173.10323,506.46894 174,499.60644 174,499.39125 174,499.17606 173.25498,499 172.34439,499 c -0.91058,0 -3.20362,-1.18073 -5.09564,-2.62384 l -3.44004,-2.62384 -2.65435,1.96807 c -7.96602,5.90643 -11.5772,17.9844 -7.07688,23.6694 3.02407,3.82013 15.87751,12.17964 15.92969,10.36021 z m 59.38602,-7 c 0.35797,-2.8875 0.90363,-7.0731 1.21258,-9.30133 0.51059,-3.68245 0.31472,-4.16387 -2.15125,-5.28744 -1.49213,-0.67986 -2.99232,-0.9611 -3.33375,-0.62499 -0.7759,0.76385 -2.86277,19.38842 -2.24201,20.00919 0.25001,0.25001 1.6716,0.45457 3.15908,0.45457 2.51326,0 2.75052,-0.37124 3.35535,-5.25 z m -121.12252,-0.0548 3.77068,-3.22968 -5.02068,-4.94518 C 104.2593,511.80051 102,510.12077 102,510.78759 c 0,2.25486 -2.790417,1.23042 -5.653005,-2.07538 -1.565847,-1.80828 -2.732917,-3.0817 -2.593487,-2.82982 0.139429,0.25188 -0.351887,1.39388 -1.091813,2.53778 -0.739925,1.14391 -1.659252,3.35389 -2.042948,4.91106 -0.652241,2.64704 -0.94415,2.78959 -4.486822,2.19106 -2.832544,-0.47856 -4.12472,-0.2359 -5.118178,0.96115 -0.960408,1.15722 -1.026216,1.90409 -0.237287,2.69302 1.066688,1.06669 19.25056,6.52793 22.22354,6.6745 0.825,0.0407 3.1968,-1.37941 5.27067,-3.15574 l 0,-2e-5 z m 20.6877,-7.44522 c 0.0558,-1.67638 -1.05052,-1.57418 -3.79898,0.35091 -2.50796,1.75665 -4.52073,6.00541 -3.57209,7.54035 0.68494,1.10825 7.30748,-5.98165 7.37107,-7.89126 z m 73.90111,-2.41044 c 0.6708,-5.03825 0.85506,-9.52502 0.40948,-9.9706 -0.44559,-0.44559 -3.4973,-0.93589 -6.78159,-1.08956 l -5.97142,-0.2794 -0.67284,6.72415 c -0.37007,3.69829 -0.96623,8.05991 -1.3248,9.69248 -0.64482,2.93587 -0.59929,2.97245 4.16487,3.3456 2.64925,0.2075 5.74829,0.45839 6.88675,0.55752 1.87718,0.16347 2.18349,-0.67273 3.28955,-8.98019 z M 187.4247,514.25 c 0.36032,-3.1625 0.90334,-7.59627 1.20669,-9.85282 l 0.55155,-4.10281 -6.32781,-0.57379 c -4.08532,-0.37044 -6.56671,-0.18725 -7.00192,0.51693 -1.11382,1.8022 -2.14384,16.87351 -1.21509,17.77931 0.78152,0.76221 4.22727,1.39063 9.99666,1.82314 1.88301,0.14117 2.21204,-0.51807 2.78992,-5.58996 z m 61.47889,4.13383 c -0.89548,-1.07899 -1.37119,-4.74283 -1.43123,-11.02307 -0.0704,-7.36263 -0.45228,-9.76925 -1.75734,-11.07431 -0.91707,-0.91707 -1.95346,-1.38134 -2.30309,-1.03171 -0.53505,0.53505 -3.27823,19.60697 -3.3794,23.49526 -0.0219,0.84155 1.64128,1.25 5.08991,1.25 4.60355,0 4.98658,-0.16372 3.78115,-1.61617 z M 118.39105,516.49456 C 124.67137,514.5893 126,513.4224 126,509.81181 c 0,-4.12288 1.40867,-6.47187 7.83417,-13.06358 l 5.60673,-5.75177 -2.16373,-2.16374 -2.16374,-2.16373 -6.80671,5.82696 c -3.7437,3.20483 -10.06922,8.55678 -14.05672,11.89322 -3.9875,3.33645 -7.25,6.37927 -7.25,6.76182 0,0.96429 5.02688,6.85148 5.83889,6.83819 0.36361,-0.006 2.86208,-0.67854 5.55216,-1.49462 z m -14.22197,-7.72548 c 0.77908,0.77908 3.5821,-1.06247 9.95762,-6.54204 4.88031,-4.1945 8.8733,-7.98651 8.8733,-8.4267 C 123,493.36015 122.26591,493 121.36869,493 c -0.89722,0 -5.67412,-1.38811 -10.61532,-3.08468 -6.45693,-2.217 -9.28911,-2.77958 -10.06869,-2 C 100.08811,488.51189 98.600065,489 97.377923,489 c -1.373012,0 -3.596779,1.60603 -5.819794,4.20312 l -3.597717,4.20313 6.2077,6.26337 c 4.877289,4.92103 6.497988,6.02246 7.562178,5.13926 0.9732,-0.80768 1.6597,-0.81889 2.43879,-0.0398 z m 136.11702,-6.64965 c 0.43236,-3.50931 0.60588,-6.56078 0.38561,-6.78105 -0.22026,-0.22027 -2.64376,-0.66617 -5.38554,-0.99089 l -4.98506,-0.59041 -0.63955,3.87146 c -1.29475,7.83768 -0.94353,9.2313 2.58844,10.27072 6.33964,1.8657 7.16751,1.27027 8.0361,-5.77983 z m -12.30141,-3.73776 0.0153,-5.11833 -4.23086,-0.56748 c -2.32697,-0.31211 -4.41708,-0.38126 -4.64468,-0.15365 -0.2276,0.2276 -0.61956,2.56121 -0.87102,5.1858 l -0.4572,4.77199 4.35188,1.53273 c 5.24381,1.84687 5.81579,1.29306 5.83657,-5.65106 l 1e-5,0 z m -138.980986,2.12227 c -1.289708,-1.37283 -2.432194,-2.38533 -2.538859,-2.25 -0.106665,0.13533 -0.720723,1.25856 -1.364574,2.49606 -1.11307,2.13935 -0.988216,2.25 2.538859,2.25 l 3.709498,0 -2.344924,-2.49606 z m 127.457766,-3.09559 c 0.37871,-2.52541 0.43412,-4.84609 0.12313,-5.15708 -0.31098,-0.31099 -2.59474,-0.8734 -5.07501,-1.24982 L 207,490.31707 l -0.0137,3.09147 c -0.008,1.7003 -0.27427,4.06292 -0.59279,5.25027 -0.63269,2.35845 0.64422,3.01812 6.2429,3.22519 2.9834,0.11034 3.17005,-0.10806 3.82501,-4.47565 l 5e-5,0 z m -11.44324,-2.13639 0.51823,-5.06975 -8.58596,-1.10111 c -12.11957,-1.55427 -12.12023,-1.55416 -17.95226,3.08938 -5.98578,4.76595 -5.51283,5.55138 3.50176,5.81537 2.75,0.0805 8.375,0.7361 12.5,1.45681 4.125,0.72072 7.95,1.21334 8.5,1.09472 0.55,-0.11862 1.2332,-2.49706 1.51823,-5.28542 z m -23.33969,-7.92675 c -0.1886,-0.18861 -2.45057,-0.73667 -5.0266,-1.21792 -4.60691,-0.86067 -4.73177,-0.81431 -7.61649,2.82795 l -2.9328,3.70296 2.11028,2.11029 2.11028,2.11028 5.84912,-4.59533 c 3.21702,-2.52743 5.69481,-4.74963 5.50621,-4.93823 z m -91.217164,4.56586 c 2.031756,-2.24891 3.491609,-4.29142 3.244118,-4.53891 -0.730697,-0.7307 -14.481263,3.35737 -16.83273,5.00441 l -2.160331,1.51315 2.393783,0.53093 c 1.316581,0.29202 3.743784,0.69941 5.393784,0.90531 1.65,0.20591 3.285137,0.4418 3.633638,0.52421 0.3485,0.0824 2.295983,-1.69019 4.327738,-3.9391 z m 77.982764,-5.45161 c 9.78341,-10.27121 13.83695,-17.14855 14.34001,-24.32961 0.37524,-5.35644 0.1154,-6.10335 -5.35055,-15.37985 -3.75599,-6.37447 -6.34511,-9.75 -7.47849,-9.75 -2.95973,0 -5.89084,-3.28015 -7.78209,-8.70878 -2.30458,-6.61507 -5.06641,-9.86516 -13.17302,-15.50192 -7.77383,-5.40537 -9.33531,-8.4817 -6.36237,-12.53473 1.11128,-1.51501 2.30207,-3.87957 2.64621,-5.25457 0.56574,-2.26045 0.34515,-2.16462 -2.30217,1 -3.1773,3.79818 -3.80311,8.10303 -1.81293,12.471 1.04069,2.28407 9.5869,8.529 11.67197,8.529 1.79163,0 5.00798,4.80578 6.69266,10 1.62152,4.99946 5.50449,10.15005 9.48098,12.5761 1.81151,1.1052 9.24421,10.06753 10.78201,13.00093 0.59888,1.14236 1.38759,4.3289 1.75269,7.0812 0.82263,6.20125 -1.03383,10.22612 -9.22915,20.00911 -9.59836,11.45786 -11.04607,12.62942 -14.66496,11.86762 -1.73522,-0.36527 -5.17994,-0.83804 -7.65494,-1.05059 l -4.5,-0.38647 4,0.9123 c 2.2,0.50176 5.35,1.34105 7,1.86509 1.65,0.52404 3.39639,0.99148 3.88086,1.03876 0.48447,0.0473 4.11294,-3.30729 8.06328,-7.45459 z M 247.375,490.875 c 0.34375,-1.71875 0.625,-4.35988 0.625,-5.86917 0,-2.69926 -0.14432,-2.76268 -8.81772,-3.875 -13.53836,-1.73623 -12.84725,-1.94796 -13.44551,4.11917 -0.28472,2.8875 -0.37687,5.40261 -0.20477,5.58912 0.2938,0.31841 16.05194,2.75894 19.593,3.03445 1.06413,0.0828 1.84072,-0.95217 2.25,-2.99857 z M 88.5,486.39528 c 5.5,-1.45491 10.982268,-2.86072 12.18282,-3.12402 1.20055,-0.2633 2.46353,-1.21026 2.80663,-2.10436 1.02098,-2.66063 3.59518,-22.41561 2.99863,-23.01215 -0.52478,-0.52479 -30.049488,-4.98295 -33.769465,-5.09912 -0.979761,-0.0306 -2.059317,0.73187 -2.399012,1.69437 -0.339695,0.9625 -1.484415,2.71503 -2.543821,3.8945 -1.257541,1.40007 -1.55295,2.37518 -0.850987,2.80902 1.562189,0.96549 1.317363,5.72267 -0.520943,10.12235 -2.263885,5.41824 -1.176896,10.82606 3.135532,15.5994 C 71.442723,489.28204 73,491.46794 73,492.03282 c 0,0.56488 1.2375,0.12271 2.75,-0.9826 1.5125,-1.10531 7.25,-3.20003 12.75,-4.65494 z m 41.75,2.0642 c 3.7683,-3.50341 4.36461,-4.94456 2.96007,-7.15382 -0.54275,-0.85372 -1.8939,-0.93942 -4.73754,-0.3005 -2.18803,0.49162 -8.25195,1.38913 -13.47538,1.99448 -5.22343,0.60534 -10.17215,1.3633 -10.99715,1.68436 -1.60307,0.62384 17.08471,7.23458 20.5,7.2518 1.1,0.006 3.6875,-1.5588 5.75,-3.47632 z m 18.49229,-3.90801 c -0.55839,-1.67831 -1.32578,-3.40092 -1.70532,-3.82802 C 146.34489,479.94464 137,484.64418 137,485.77104 c 0,0.33003 0.91947,1.57879 2.04327,2.77502 1.96907,2.09598 2.20071,2.11835 6.37878,0.61593 4.23315,-1.52224 4.31153,-1.63108 3.32024,-4.61052 z m 74.58544,5.69853 c 0.24517,-0.4125 0.76436,-4.415 1.15375,-8.89444 l 0.70799,-8.14444 -7.34473,-0.85556 c -8.48353,-0.98821 -8.15114,-1.34579 -9.37539,10.08606 l -0.68064,6.3557 6.35565,0.97392 c 8.65946,1.32694 8.67866,1.32794 9.18337,0.47876 z m -56.03868,-7.5 C 173.39042,475.91185 180,466.58021 180,464.80422 180,464.3619 177.525,464 174.5,464 c -5.44444,0 -5.5,-0.0303 -5.5,-3 0,-2.33333 -0.44444,-3 -2,-3 -1.33333,0 -2,0.66667 -2,2 0,2.57883 -1.3667,2.52809 -5.03916,-0.18708 -2.01963,-1.49317 -4.46564,-2.20704 -7.70951,-2.25 -4.24153,-0.0562 -4.78686,0.18802 -5.08251,2.27584 -0.31795,2.24532 -0.57768,2.31314 -6.5,1.6974 -3.39285,-0.35276 -7.40632,-0.87846 -8.91882,-1.16822 -2.49977,-0.47891 -2.75,-0.25725 -2.75,2.43597 0,3.2286 1.71459,4.15698 7.72432,4.18244 2.56433,0.0109 3.54187,0.62772 4.77568,3.01365 1.28678,2.48836 2.16378,3 5.14231,3 3.64313,0 3.72896,0.17068 2.26286,4.5 -0.18626,0.55 0.28989,3.07912 1.0581,5.62026 1.00555,3.32622 2.11655,4.90689 3.96674,5.64362 5.29447,2.10823 6.6609,1.4931 13.35904,-6.01388 z m 39.06478,2 c 1.74552,-9.84185 1.8944,-13.75022 0.525,-13.78253 -0.75836,-0.0179 -6.32883,-0.654 -12.37883,-1.41358 -6.05,-0.75958 -11,-1.30744 -11,-1.21747 0,0.09 -0.96144,2.05112 -2.13654,4.35811 l -2.13653,4.19452 2.63653,0.30548 c 2.42573,0.28105 2.61596,0.63764 2.37915,4.45985 l -0.25739,4.15438 7.25739,0.96155 c 3.99157,0.52885 8.89481,1.02188 10.8961,1.09562 3.35757,0.12371 3.68324,-0.11704 4.21512,-3.11593 z m -106.943109,1.39446 c 0.290815,-0.47055 -0.582628,-0.64309 -1.940983,-0.38343 C 96.111382,486.0207 95,486.40569 95,486.61658 c 0,0.77375 3.898641,0.35644 4.410721,-0.47212 z M 182.81642,481.75 c 0.28317,-2.46095 8e-5,-2.75 -2.69329,-2.75 -3.85917,0 -7.25086,4.01447 -4.38123,5.18572 0.96695,0.39467 2.8831,0.62683 4.2581,0.51593 1.92191,-0.15502 2.57317,-0.83754 2.81642,-2.95165 z m -43.59059,0.25374 3.27417,-1.99626 -3.75,-0.004 c -3.08458,-0.003 -3.75,0.35115 -3.75,1.99626 0,2.47172 0.17771,2.47188 4.22583,0.004 z m -20.72589,-1.13137 c 4.75605,-0.70737 7.44238,-1.54592 7.20798,-2.25 -0.20551,-0.6173 -1.01136,-1.20627 -1.79079,-1.30882 -0.77942,-0.10254 -3.55463,-0.46762 -6.16713,-0.81127 -4.44736,-0.58502 -4.75,-0.81206 -4.75,-3.56355 0,-2.5729 -0.35932,-2.93873 -2.88646,-2.93873 -2.66616,0 -2.93942,0.3532 -3.58044,4.62785 -0.3817,2.54532 -0.93093,5.24532 -1.22053,6 -0.6611,1.72278 2.81491,1.78723 13.18737,0.24452 z m 130.04104,-7.4104 c 0.78642,-7.34349 -0.36694,-9.63077 -6.04098,-11.9802 -6.25782,-2.59114 -7.22143,-2.65501 -7.78086,-0.51578 -0.43013,1.64485 -1.08254,1.91133 -3.49714,1.42841 l -2.96835,-0.59367 -0.71912,7.67401 c -0.39551,4.22071 -0.5484,7.84473 -0.33975,8.05337 0.53496,0.53496 12.57369,2.20043 16.97563,2.34846 l 3.6704,0.12343 0.70017,-6.53803 z m -101.31167,3.13874 c 0.45745,-0.69041 -0.66084,-1.50525 -3,-2.18597 -2.52964,-0.73615 -3.82696,-1.74234 -4.03285,-3.12785 -0.2219,-1.4932 -1.29777,-2.20696 -4,-2.65373 C 128.17421,467.30681 128,467.40887 128,473.43506 l 0,5.43507 9.25,-0.58435 c 5.0875,-0.3214 9.57819,-1.07967 9.97931,-1.68507 z M 126,473.5 c 0,-2.15105 -0.45364,-2.50191 -3.25,-2.51365 -1.7875,-0.008 -4.2625,-0.285 -5.5,-0.61664 -1.90428,-0.51032 -2.25,-0.20975 -2.25,1.95616 0,2.28403 0.45686,2.60028 4.25,2.94192 2.3375,0.21054 4.8125,0.46141 5.5,0.5575 0.71326,0.0997 1.25,-0.89878 1.25,-2.32529 z m 100,-6.375 c 0,-4.67143 -0.13194,-4.90139 -3.15972,-5.50694 -1.73785,-0.34757 -3.31091,-0.48076 -3.4957,-0.29597 -0.18478,0.18478 -0.61989,2.40734 -0.96689,4.93903 l -0.63092,4.60305 3.87661,0.39981 c 2.13214,0.2199 3.98912,0.47546 4.12662,0.56792 0.1375,0.0924 0.25,-2.02565 0.25,-4.7069 z m -9.625,-0.25 c 1.00866,-5.04328 0.78173,-5.625 -2.375,-6.08831 -2.80746,-0.41205 -3,-0.23204 -3,2.80472 0,1.78476 -0.27314,3.95682 -0.60699,4.8268 -0.46987,1.22446 0.0667,1.58179 2.375,1.58179 2.53983,0 3.07466,-0.46337 3.60699,-3.125 z M 127,464.56127 l 0,-4.43872 -4.25,-0.59024 c -2.3375,-0.32463 -6.5,-0.68971 -9.25,-0.81128 l -5,-0.22103 -0.3022,4.68652 -0.3022,4.68653 3.8022,0.39537 c 2.09121,0.21746 6.3897,0.47102 9.5522,0.56348 L 127,469 l 0,-4.43873 z m 82.81166,-4.76913 c 1.25419,-10.18629 1.21708,-10.2762 -4.71205,-11.41693 -3.98546,-0.76678 -12.65437,0.72297 -12.47783,2.14431 0.067,0.53926 0.41306,2.21798 0.76906,3.73048 0.63309,2.6898 0.54833,2.75 -3.87179,2.75 -4.47737,0 -4.51905,0.0315 -4.51905,3.41821 0,1.88002 -0.25132,4.07314 -0.55849,4.87361 -0.44701,1.1649 1.19966,1.65107 8.25,2.43578 4.84467,0.53921 10.42353,1.04609 12.39746,1.12639 l 3.58898,0.14601 1.13371,-9.20786 z m 40.58135,2.62607 C 250.72686,461.54823 251,459.99559 251,458.9679 c 0,-1.02768 0.7875,-2.31285 1.75,-2.85593 1.14067,-0.64361 1.40181,-1.30868 0.75,-1.9101 -1.06668,-0.98422 -15.00382,-2.7471 -30.34775,-3.83862 -10.34369,-0.73582 -11.10906,-0.37825 -11.13694,5.20296 l -0.0153,3.0662 10.18414,1.19488 c 10.27149,1.20512 10.93045,1.08788 12.07317,-2.14798 0.39146,-1.10852 11.24913,3.02106 12.77403,4.85845 1.56741,1.88861 2.60523,1.8517 3.36167,-0.11955 l -1e-5,0 z m -70.39859,-1.78484 c -0.003,-0.62335 -0.47422,-2.82087 -1.047,-4.88337 -0.9451,-3.40312 -1.35907,-3.75 -4.47537,-3.75 -2.82889,0 -3.5445,0.4405 -4.06141,2.5 -1.06667,4.24997 0.26891,7.32806 3.3418,7.70177 3.69909,0.44985 6.24876,-0.19079 6.24198,-1.5684 z M 146.40804,457.5 c 1.07493,-1.64054 2.57555,-2.50764 4.36501,-2.52224 L 153.5,454.95553 151,453 c -2.67025,-2.0887 -7.42294,-2.47233 -16.75,-1.35202 -5.14837,0.61839 -5.25,0.69465 -5.25,3.93905 0,3.27784 0.0486,3.31185 5.25,3.67573 2.8875,0.202 6.43575,0.45052 7.88499,0.55226 1.83376,0.12873 3.13308,-0.5752 4.27305,-2.31502 z m 19.66528,-0.5 c 2.48991,0 2.92668,-0.3905 2.92668,-2.61663 0,-2.22554 -0.3363,-2.52651 -2.25,-2.01366 -1.2375,0.33164 -4.46247,0.60913 -7.16661,0.61664 l -4.91661,0.0136 3.91661,3.40289 c 2.75157,2.39066 4.01279,2.98558 4.23993,2 0.18683,-0.81064 1.55887,-1.40289 3.25,-1.40289 l 0,5e-5 z M 127,455.58179 c 0,-3.4521 0.99468,-5.58179 2.60699,-5.58179 1.82439,0 1.84825,-8.61741 0.0429,-15.5 -1.27526,-4.86174 -1.40608,-4.99234 -4.73071,-4.72304 -1.88055,0.15232 -6.40893,0.97659 -10.06306,1.83171 l -6.64389,1.55476 0.45594,4.16828 c 0.84257,7.70304 1.24258,8.66751 3.60088,8.68194 5.69846,0.0349 6.73095,0.94548 6.73095,5.93631 0,5.61359 0.33665,6.05004 4.66667,6.05004 2.85882,0 3.33333,-0.34424 3.33333,-2.41821 z m -9.16963,-0.91088 c 0.77903,-4.10941 -0.68631,-6.43528 -4.32171,-6.85969 C 110.13925,447.41786 110,447.5293 110,450.61901 c 0,5.26404 0.89033,6.52427 4.36946,6.18483 2.07496,-0.20245 3.22987,-0.91421 3.46091,-2.13293 z M 108.66715,452.75 c -0.30549,-1.7875 -0.85844,-6.7375 -1.22878,-11 -0.37034,-4.2625 -0.88729,-7.75 -1.14877,-7.75 -0.26149,0 -4.99478,0.92098 -10.518427,2.04663 l -10.042995,2.04663 -2.17854,-2.04663 C 82.351441,434.92098 80.190173,434 78.746822,434 c -2.330384,0 -2.688768,0.47596 -3.200148,4.25 -0.31673,2.3375 -0.681803,6.26808 -0.811273,8.73462 L 74.5,451.46925 l 15,2.16157 c 20.82555,3.00107 19.83833,3.04643 19.16715,-0.88082 z M 252.75,451.31067 c -0.9625,-0.25152 -1.76342,-0.98682 -1.77983,-1.63399 -0.0274,-1.08287 -13.87533,-10.1678 -14.45031,-9.48016 -0.13956,0.16692 -0.47706,2.38522 -0.75,4.92958 l -0.49625,4.6261 8.11319,0.97436 c 9.12124,1.09541 12.00915,1.27557 9.3632,0.58411 z M 73.653927,436.15233 C 74.391689,422.43153 73.031894,423.92803 86.5,422.01474 99.506726,420.16699 99.51836,420.41164 86.093597,413.46856 73.555246,406.98391 71,405.36681 71,403.91651 c 0,-1.62185 4.636356,-5.21987 18.831337,-14.61396 l 14.331333,-9.48434 -0.6944,-5.15911 c -0.38193,-2.8375 -0.82526,-5.30333 -0.98519,-5.47962 -0.4365,-0.48114 -16.072499,9.35246 -23.48308,14.76869 -3.575,2.61289 -9.425,6.69829 -13,9.07867 -3.575,2.38038 -10.063381,7.02612 -14.418625,10.32386 -4.355243,3.29775 -12.905243,8.88266 -19,12.41091 -6.094756,3.52825 -11.476117,6.79251 -11.958579,7.2539 -0.4843,0.46315 0.947375,1.3302 3.196382,1.9358 2.240472,0.6033 4.949978,2.21105 6.021124,3.5728 1.071146,1.36174 2.717814,2.47589 3.659262,2.47589 0.941448,0 3.082425,1.15337 4.757727,2.56304 l 3.046002,2.56304 4.806196,-4.73392 4.806196,-4.73393 3.988316,1.79848 c 3.260392,1.47023 4.04377,2.36836 4.292157,4.92088 0.227655,2.33949 0.856161,3.20098 2.506563,3.43577 1.216123,0.173 2.51118,1.29275 2.891402,2.5 0.378775,1.20265 1.975051,3.75167 3.54728,5.66448 1.572228,1.91282 2.872281,4.16282 2.889006,5 0.02533,1.26795 0.193011,1.24352 1.004057,-0.1463 0.535507,-0.91765 1.264265,-7.07329 1.619461,-13.67921 z m 100.213533,13.95074 c 1.10657,-0.70102 0.9276,-1.46126 -0.93805,-3.98468 C 171.17622,443.74708 169.85033,443 167.39499,443 c -2.89069,0 -12.45229,-4.37054 -19.12112,-8.74012 l -2.47864,-1.62407 0.74258,7.92436 c 0.50941,5.43618 1.24804,8.30929 2.35238,9.15029 1.87773,1.42996 22.82018,1.75915 24.97727,0.39261 z m -32.45156,-0.97138 2.9159,-0.63169 -5.6659,-3.76021 -5.6659,-3.76022 0,4.51022 c 0,4.28225 0.139,4.50423 2.75,4.3919 1.5125,-0.0651 4.06216,-0.40258 5.6659,-0.75 z M 257.25,448.38401 c 0.9625,-0.3395 1.75,-1.06252 1.75,-1.60672 0,-1.08804 1.89232,-2.70542 12.3168,-10.52729 3.84827,-2.8875 7.7656,-5.25 8.70517,-5.25 0.93957,0 2.92417,-0.95639 4.41021,-2.12531 l 2.70189,-2.12531 -2.56703,-2.67941 C 283.15517,422.5963 282,420.91248 282,420.32817 c 0,-0.58432 1.80419,-2.25636 4.00932,-3.71564 l 4.00931,-2.65324 -9.67071,-11.72964 c -5.31889,-6.45131 -10.01453,-12.1236 -10.43476,-12.60509 -0.42022,-0.4815 -2.8259,1.0935 -5.34593,3.5 l -4.58189,4.37544 -3.49267,24.38711 c -3.92195,27.38448 -4.01411,28.52262 -2.24267,27.69687 0.6875,-0.32048 2.0375,-0.86047 3,-1.19997 z M 226.4226,446.75 c 0.25338,-1.2375 0.7349,-5.06782 1.07004,-8.51182 0.68842,-7.07438 0.74861,-7.00996 -6.9634,-7.45277 l -4.97076,-0.28541 -1.20412,8 c -0.66227,4.4 -1.23793,8.5625 -1.27924,9.25 -0.0528,0.87915 1.84767,1.25 6.40583,1.25 5.91781,0 6.52098,-0.1955 6.94165,-2.25 z m 7.92569,-4.5 c 1.03002,-10.90622 1.00624,-11.04043 -1.85901,-10.4927 -2.75086,0.52586 -3.04005,1.32448 -3.98059,10.9927 l -0.608,6.25 2.90505,0 c 2.85685,0 2.91563,-0.11199 3.54255,-6.75 z m -173.278813,4.01903 4.569477,-0.4888 -1.569477,-3.35755 c -1.045205,-2.23598 -2.27838,-3.36843 -3.691669,-3.39011 -1.682823,-0.0258 -2.250489,-0.8349 -2.74188,-3.90789 -0.497812,-3.11314 -1.224108,-4.12567 -3.692909,-5.14828 -2.97562,-1.23254 -3.227799,-1.12072 -7.940493,3.52111 l -4.867272,4.79409 -3.18149,-2.67705 c -1.782354,-1.49975 -3.901019,-2.45054 -4.817627,-2.16199 -1.08154,0.34047 -2.442507,-0.66584 -4.015039,-2.96875 C 27.782416,428.52336 25.895276,427 24.805356,427 c -1.065261,0 -2.855567,-0.49169 -3.978457,-1.09264 -3.03431,-1.62391 -4.343985,0.17057 -2.980043,4.08318 1.422542,4.0807 4.059562,6.24634 12.880527,10.57808 3.975061,1.95205 7.483502,3.96358 7.796535,4.47008 0.313034,0.5065 3.148553,0.65131 6.301155,0.32179 4.628726,-0.48379 5.997943,-0.27867 7.113678,1.06571 0.817337,0.98483 2.031018,1.39255 2.971463,0.99823 0.874382,-0.36663 3.646051,-0.88656 6.159263,-1.1554 z M 202,446.56136 c 1.925,0.0223 4.85,0.24257 6.5,0.48957 2.81929,0.42202 3.01814,0.2325 3.30114,-3.14624 l 0.30115,-3.5953 -13.68568,-0.68683 c -7.52712,-0.37775 -13.9334,-0.4391 -14.23617,-0.13634 -0.30277,0.30277 1.20179,2.34499 3.34346,4.53826 3.56385,3.64971 4.19412,3.92455 7.43502,3.24207 1.9476,-0.41013 5.11608,-0.72747 7.04108,-0.70519 z m -57.46373,-8.06724 -0.68059,-6.35529 -4.60598,-1.56942 c -5.9112,-2.01414 -9.65698,-2.07314 -8.91532,-0.14042 0.30159,0.78594 0.83146,2.92344 1.17749,4.75 0.50582,2.67002 1.84046,4.12699 6.80864,7.43266 3.39872,2.26141 6.34078,3.69003 6.53792,3.1747 0.19714,-0.51532 0.0522,-3.79683 -0.32216,-7.29223 z m 107.77528,1.06824 c 0.44635,-3.17493 0.67135,-5.90519 0.5,-6.06725 -0.17135,-0.16206 -3.79905,-0.61763 -8.06155,-1.01237 l -7.75,-0.71772 0,2.98816 c 0,2.55937 0.89684,3.57932 6.25,7.10786 3.4375,2.26584 6.7,3.97441 7.25,3.79682 0.55,-0.17759 1.3652,-2.92057 1.81155,-6.0955 z M 195.01101,436.75 c 0.006,-0.6875 0.2898,-2.93674 0.63056,-4.99831 l 0.61957,-3.74832 -6.13057,0.64077 C 184.42119,429.24089 184,429.14507 184,427.24945 184,424.71831 182.2057,424 175.88303,424 c -5.79085,0 -5.72788,0.49082 1.05067,8.18897 4.215,4.78683 5.44516,5.2724 14.3163,5.65099 2.41379,0.10302 3.75392,-0.28536 3.76101,-1.08996 z m 18.32733,-2.44749 c 0.33001,-2.03362 0.36678,-3.93073 0.0817,-4.2158 -0.6114,-0.61141 -14.75081,-2.02248 -15.28731,-1.52563 -0.202,0.18707 -0.59802,2.38735 -0.88005,4.88952 L 196.7399,438 l 7.99921,0 7.99921,0 0.60002,-3.69749 z m -109.09433,-1.92287 c 5.90921,-1.40318 10.94534,-2.877 11.19141,-3.27515 0.24607,-0.39814 -2.78874,-2.30511 -6.74401,-4.2377 L 101.5,421.353 l -13,2.0735 -13,2.0735 0.313358,3.25 c 0.271191,2.81265 0.687682,3.25 3.095013,3.25 1.55159,0 3.618053,0.92421 4.673078,2.09 2.203155,2.43446 3.744971,2.30683 20.662561,-1.71036 z m 150.06754,-6.81728 c 0.44635,-3.17493 0.6552,-5.92894 0.46411,-6.12003 -0.52291,-0.52292 -12.22206,-2.2882 -12.62696,-1.90529 -0.19322,0.18273 -0.67256,3.05685 -1.06521,6.38695 l -0.71391,6.05472 3.06521,0.49095 c 6.69307,1.07203 8.10413,1.23615 9.06521,1.05441 0.55,-0.10401 1.3652,-2.78678 1.81155,-5.96171 z M 152,429.58178 C 152,427.05784 150.35077,426 146.41584,426 c -2.4036,0 -7.35903,-1.125 -11.01207,-2.5 -3.65304,-1.375 -6.77439,-2.5 -6.93635,-2.5 -0.16195,0 0.0241,1.19129 0.41355,2.64732 0.58475,2.18645 1.64842,2.88798 6.10996,4.02978 2.97108,0.76035 5.61356,1.59406 5.87218,1.85268 0.58136,0.58136 11.13689,0.63065 11.13689,0.052 z M 229.43229,427.75 c 1.49641,-7.15758 1.17957,-9.74768 -1.50729,-12.32185 l -2.6745,-2.56234 -0.62846,2.50397 c -0.48319,1.92519 -1.37383,2.57636 -3.85312,2.8171 -2.96639,0.28804 -3.28487,0.66847 -3.97655,4.75003 -0.41354,2.44029 -0.59814,4.59065 -0.41023,4.77857 0.41431,0.4143 8.43416,2.02211 10.84881,2.17495 1.03828,0.0657 1.91918,-0.79081 2.20134,-2.14043 z m 9.9303,-3.94496 c 0.35612,-3.40722 0.27932,-6.56313 -0.17067,-7.01312 -0.44999,-0.44999 -2.25226,-0.31824 -4.00505,0.29278 -2.55079,0.88921 -3.18687,1.66525 -3.18687,3.88813 0,1.52744 -0.28125,4.18342 -0.625,5.90217 -0.6163,3.08151 -0.56957,3.125 3.35754,3.125 l 3.98255,0 0.6475,-6.19496 z M 127.47901,424.75 c -0.37394,-1.7875 -1.19719,-3.76597 -1.82945,-4.3966 C 124.58072,419.28731 110.28429,413 108.929,413 c -0.74919,0 -3.41308,7.86342 -2.8407,8.38532 0.22644,0.20646 3.1117,1.75758 6.4117,3.44693 4.16396,2.13164 7.47785,3.08627 10.82946,3.11965 l 4.82945,0.0481 -0.6799,-3.25 z m 87.85544,-2.58924 c 0.74762,-4.71554 0.60231,-5.59917 -1.24397,-7.56445 -2.9765,-3.16834 -2.88782,-9.79617 0.15952,-11.92189 1.57171,-1.09637 1.79781,-1.59004 0.75,-1.63761 -0.825,-0.0374 -7.72927,-0.95292 -15.34282,-2.03437 l -13.84282,-1.96627 -9.90718,8.64336 C 170.45823,410.43338 166,415.0718 166,415.98713 c 0,3.43759 4.18053,5.77475 11.6233,6.4981 l 7.12331,0.69231 0.88925,-5.83877 c 0.86884,-5.7048 0.95779,-5.83265 3.87669,-5.57195 6.49799,0.58035 7.38397,1.20934 11.5273,8.1836 3.17359,5.34194 4.73088,7.02971 6.78919,7.35799 5.99537,0.95624 6.60383,0.53892 7.50541,-5.14765 z m -15.34763,-0.54207 c -1.66465,-2.81528 -3.35518,-5.61294 -3.75673,-6.21702 -0.40155,-0.60408 -2.37746,-1.35677 -4.3909,-1.67265 l -3.66082,-0.57433 -1.08918,6.25457 C 186.49013,422.84927 186,425.95755 186,426.31654 c 0,0.35899 3.82803,0.60054 8.50673,0.53678 l 8.50673,-0.11594 -3.02664,-5.11869 z m 89.67361,1.82384 c 0.32871,-0.85661 1.23796,-1.31176 2.02055,-1.01146 0.78259,0.30031 1.16874,0.13479 0.8581,-0.36783 -0.31063,-0.50262 2.0285,-1.6445 5.19807,-2.53752 3.16957,-0.89303 8.55975,-2.7185 11.97819,-4.05661 3.53163,-1.38243 6.97538,-2.14129 7.97554,-1.75749 1.08227,0.41531 0.27894,-1.13222 -2.0858,-4.01808 C 313.48978,407.11209 311.12036,405 310.3397,405 c -2.0332,0 -8.46397,3.42327 -18.06054,9.6141 l -8.33226,5.37522 1.64156,2.50534 c 1.88261,2.87323 3.21419,3.18319 4.07197,0.94787 z m -184.1598,-7.09827 c 1.36422,-3.26504 1.36565,-3.83454 0.0134,-5.32874 -2.80112,-3.09519 -0.84707,-13.09599 3.05887,-15.65525 1.20791,-0.79146 3.78585,-3.83319 5.72875,-6.75941 l 3.53255,-5.3204 -3.05913,-10.603 -3.05913,-10.603 -3.86916,2.71277 c -2.80701,1.96807 -3.74854,3.26181 -3.42975,4.71277 0.24168,1.1 0.73732,4.06752 1.10141,6.59449 l 0.66199,4.5945 -9.840226,6.28005 C 84.227933,394.69913 73,402.90539 73,404.02792 c 0,0.77654 28.59154,15.84145 30.23658,15.93168 0.40512,0.0222 1.42394,-1.60468 2.26405,-3.61534 z m 151.49945,-9.8449 1.29549,-10.50063 4.40702,-3.61123 c 2.42386,-1.98617 4.23766,-3.78058 4.03067,-3.98758 -0.58592,-0.58591 -22.76898,-3.69754 -23.21074,-3.25577 -0.59855,0.59854 -3.62472,29.08699 -3.14112,29.57058 0.52796,0.52796 9.22262,2.00954 12.72089,2.16765 2.56809,0.11607 2.61932,-0.0204 3.89779,-10.38302 z M 223,414.53896 c 0,-0.80358 0.86584,-2.2677 1.92409,-3.25361 1.52253,-1.41846 1.77604,-2.52228 1.21469,-5.28896 -0.61787,-3.04531 -1.13327,-3.5375 -3.99486,-3.81503 -6.95414,-0.67444 -10.85409,5.58649 -6.85183,10.99984 2.29633,3.10595 7.70791,4.05921 7.70791,1.35776 z M 237,414 c 1.33333,-1.33333 2,-3.33333 2,-6 0,-3.96491 -0.0333,-4 -3.8,-4 -4.432,0 -6.19114,-1.39938 -6.22259,-4.95 -0.0124,-1.4025 -1.53648,-4.98164 -3.3868,-7.95364 -3.77132,-6.05755 -3.46665,-6.3342 -5.12498,4.65364 -0.59891,3.9683 -0.48647,4.25101 1.69647,4.26531 4.25176,0.0279 5.90719,2.56143 6.03278,9.23294 0.11526,6.12286 4.86875,8.68812 8.80512,4.75175 z m 73.81456,-10.98081 c 0.72301,-0.0105 2.45051,1.33081 3.83889,2.98081 1.38839,1.65 3.0605,3 3.7158,3 3.36433,0 25.36283,-10.43389 29.95195,-14.20621 l 2.82119,-2.31906 -9.19607,-11.71824 -9.19608,-11.71824 -8.12512,5.68365 c -20.29785,14.19865 -32.99924,23.74514 -38.99036,29.30554 -0.47588,0.44167 0.57162,2.59102 2.32778,4.77632 l 3.19302,3.97328 9.17222,-4.86933 c 5.04472,-2.67813 9.76377,-4.87796 10.48678,-4.88852 z M 322.36163,411.5 C 321.75303,409.91402 320,409.41916 320,410.83333 c 0,1.05752 1.09309,2.16667 2.13528,2.16667 0.44107,0 0.54293,-0.675 0.22635,-1.5 z M 187.8398,393.21356 C 190.77669,390.8961 193.87203,389 194.71833,389 c 1.58635,0 15.16808,-8.06712 15.24086,-9.05259 0.0486,-0.65851 -42.05861,-5.18132 -42.65797,-4.58197 -0.22769,0.2277 0.3409,2.72194 1.26354,5.54275 1.46191,4.46952 1.52767,6.31536 0.51158,14.36029 -0.64128,5.07733 -1.54229,10.89192 -2.00226,12.92131 l -0.8363,3.68978 8.13111,-7.22623 c 4.47211,-3.97442 10.53402,-9.12233 13.47091,-11.43978 z m 152.43942,15.03159 c 2.80243,-1.1017 3.63947,-1.92596 3.23856,-3.18913 -0.41083,-1.29442 0.72267,-2.28021 4.72079,-4.10556 2.89378,-1.32117 7.14114,-3.80105 9.43856,-5.51085 l 4.17713,-3.10872 -6.09539,-8.60857 -6.09538,-8.60856 -3.36553,1.40621 c -3.33484,1.39339 -3.3798,1.37626 -4.93223,-1.87922 -1.53465,-3.21818 -1.48057,-3.45674 2.64235,-11.65683 5.3255,-10.59188 9.08974,-15.27334 14.09616,-17.53092 9.32561,-4.20527 -1.83592,-3.21947 -14.10424,1.2457 -4.86152,1.76939 -15.24741,8.25097 -14.7619,9.21253 0.16351,0.32382 1.18932,2.99107 2.27959,5.92721 1.23565,3.32765 5.65478,9.9829 11.73231,17.66897 5.3625,6.78178 9.73609,12.70448 9.71908,13.16155 -0.0867,2.33055 -15.68377,11.50506 -24.31591,14.30313 -3.81665,1.23714 -3.82842,1.25705 -1.5,2.53662 2.6309,1.44579 7.40255,0.98646 13.12605,-1.26356 z m -48.23772,-11.84039 7.97182,-6.59525 -6.18561,-7.15475 c -3.40208,-3.93512 -6.58061,-7.03375 -7.0634,-6.88585 C 285.52901,376.14735 271,387.1433 271,387.69977 271,388.37183 283.04567,403 283.59908,403 c 0.25883,0 4.05792,-2.96786 8.44242,-6.59524 z M 241.2283,386.5 c 0.95056,-8.25 1.62556,-16.60439 1.5,-18.5653 l -0.2283,-3.56531 -9.5,5.06707 c -9.26051,4.93934 -9.5126,5.16787 -10,9.06531 -0.41389,3.30964 0.12875,5.08571 3.15078,10.31257 2.00793,3.47288 3.94544,7.88503 4.30559,9.80478 0.63672,3.39402 0.77068,3.48202 4.84922,3.18566 L 239.5,401.5 l 1.7283,-15 z m -22.75745,10.25 c 0.30881,-1.7875 1.1475,-7.35336 1.86375,-12.36858 l 1.30226,-9.11858 -9.01983,5.46938 c -4.9609,3.00816 -10.60866,6.54902 -12.55056,7.86858 -1.94191,1.31956 -4.30118,2.3992 -5.24284,2.3992 -0.94166,0 -2.93306,1.05022 -4.42534,2.33383 l -2.71323,2.33382 14.40747,2.03358 c 7.92411,1.11847 14.72458,2.09325 15.11216,2.16618 0.38757,0.0729 0.95735,-1.32991 1.26616,-3.11741 z m -67.85844,-7.28121 c 2.85029,-4.3501 0.737,-4.15315 -3.0174,0.28121 -1.66733,1.9693 -1.70139,2.25 -0.27305,2.25 0.89756,0 2.37826,-1.13904 3.29045,-2.53121 z M 365.66087,385.6948 C 367.39283,384.33244 368,382.85072 368,379.98644 c 0,-2.12762 0.41196,-4.12301 0.91547,-4.4342 C 369.64385,375.10208 374,363.23201 374,361.69741 c 0,-0.21142 -2.21749,-1.89761 -4.92777,-3.74708 -3.92428,-2.67792 -5.17257,-4.23707 -6.12996,-7.65651 -0.6612,-2.3616 -1.39106,-4.29382 -1.62189,-4.29382 -1.80608,0 -6.58928,3.62217 -9.54262,7.22634 -4.51199,5.50629 -10.01011,17.46624 -9.20114,20.01507 0.50646,1.5957 1.22033,1.79974 4.4108,1.26071 l 3.80655,-0.64311 5.82923,8.14187 c 3.20607,4.47802 6.02482,7.55506 6.26388,6.83787 0.23907,-0.7172 1.48728,-2.13198 2.77379,-3.14395 z M 321,375.17674 c 5.775,-4.08298 10.62925,-7.53481 10.78723,-7.67074 0.15798,-0.13592 -0.74202,-2.5782 -2,-5.42729 l -2.28723,-5.18016 -3.44428,2.55072 c -4.59105,3.39999 -11.72086,3.41832 -32.16514,0.0827 -2.56284,-0.41815 -2.61997,-0.29983 -3.20086,6.62898 l -0.59144,7.05473 6.69919,7.76934 6.69919,7.76934 4.50167,-3.07701 C 308.47425,383.985 315.225,379.25972 321,375.17674 z m -60.03416,5.28631 c -5.16807,-5.23531 -5.50127,-5.41236 -6.11616,-3.25 -0.35768,1.25782 -0.69518,3.49729 -0.75,4.97658 -0.0887,2.39397 0.31256,2.73276 3.65032,3.0819 9.34029,0.97703 9.17339,1.22658 3.21584,-4.80848 z M 278.56951,379.417 287,372.83399 287,365.917 c 0,-3.80435 -0.3375,-6.93375 -0.75,-6.95423 -0.4125,-0.0205 -6.54855,-0.86239 -13.63568,-1.8709 -7.08712,-1.00852 -13.66163,-1.63075 -14.61002,-1.38274 -1.36569,0.35713 -1.8587,2.04019 -2.37022,8.09145 l -0.64586,7.64053 7.23086,7.27944 c 3.97698,4.0037 7.38591,7.27945 7.57541,7.27945 0.18949,0 4.13825,-2.96235 8.77502,-6.583 z m -123.6398,3.06513 c 0.0387,0.54018 1.25548,-0.76202 2.70404,-2.89377 2.19345,-3.22796 2.71504,-5.31463 3.12003,-12.48213 0.43573,-7.7116 0.26646,-8.86611 -1.62834,-11.10623 l -2.11462,-2.5 1.60499,3.98211 c 2.19417,5.44391 1.1679,13.34828 -2.64778,20.39318 -1.63242,3.01393 -2.9364,5.96246 -2.89774,6.55229 0.0386,0.58983 0.45702,0.17242 0.92971,-0.92758 0.47269,-1.1 0.89106,-1.55804 0.92971,-1.01787 z M 252.36714,382.25 c 0.27606,-0.9625 0.81445,-7.10324 1.19642,-13.6461 l 0.69449,-11.8961 -4.37902,2.4146 c -4.31458,2.37906 -4.38907,2.50999 -5.06149,8.8961 -1.72495,16.38237 -1.8327,14.83144 1.06138,15.27769 5.20727,0.80292 5.99428,0.67602 6.48822,-1.04619 z M 132.0898,374 c 2.05272,0 2.9102,-0.49243 2.9102,-1.67126 0,-2.19995 2.86968,-5.31598 4.36667,-4.74153 0.9649,0.37027 4.63333,-4.25324 4.63333,-5.83963 0,-0.24411 -1.8,-1.25552 -4,-2.24758 -4.39493,-1.98184 -4.80546,-2.9525 -2.38151,-5.63093 1.51472,-1.67375 1.39831,-1.89342 -1.8155,-3.42598 l -3.434,-1.63756 -7.4345,4.61909 c -4.08897,2.54049 -8.43279,5.39675 -9.65295,6.34723 l -2.21845,1.72815 3.11269,10.15924 3.11269,10.15925 4.94556,-3.90925 C 127.41854,375.39204 130.21589,374 132.0898,374 z m 86.28425,1.41451 C 222.75325,372.96692 223,372.60046 223,368.54441 l 0,-4.2846 -9.18727,-2.14263 c -5.05301,-1.17845 -9.50331,-1.7994 -9.88957,-1.37991 -0.38626,0.4195 -1.01246,4.21907 -1.39156,8.44349 l -0.68926,7.68076 3.32883,0.4092 c 7.10416,0.87329 8.72764,0.64504 13.20288,-1.85621 z M 201.31756,365 l 0.55362,-5.5 -5.21958,-3.31178 c -2.87077,-1.82147 -6.43814,-5.19647 -7.92748,-7.5 -1.48934,-2.30352 -3.58146,-5.30742 -4.64916,-6.67533 l -1.94127,-2.48711 -2.31685,2.13207 c -1.27426,1.17263 -6.26028,4.37906 -11.08003,7.12539 -7.54129,4.29707 -8.4353,5.07562 -6.41157,5.58354 3.56168,0.89393 6.10544,7.34896 5.36378,13.61112 -0.32713,2.76215 -0.27849,5.05101 0.10809,5.08634 0.38659,0.0353 7.67789,0.8392 16.20289,1.78636 l 15.5,1.72211 0.63197,-3.03635 c 0.34759,-1.67 0.8811,-5.51136 1.18559,-8.53636 z m 32.34616,2.37132 c 3.56878,-1.99578 7.6919,-4.6354 9.16248,-5.86582 1.47059,-1.23043 5.06622,-3.44527 7.99029,-4.92186 6.07411,-3.0673 6.2884,-4.96095 0.60621,-5.35717 -2.15748,-0.15045 -8.36685,-0.9563 -13.79858,-1.79079 -5.43173,-0.83449 -9.98806,-1.3864 -10.12518,-1.22647 -0.13712,0.15994 -0.75547,3.25265 -1.37412,6.8727 -1.43606,8.40316 -1.45367,15.91809 -0.0373,15.91809 0.59813,0 4.00742,-1.63291 7.5762,-3.62868 z M 223.47869,359.75 C 224.8887,353.6111 227,339.29259 227,335.86901 227,333.74105 226.5251,332 225.94467,332 c -0.58044,0 -4.56289,2.25 -8.8499,5 -4.287,2.75 -8.0871,5 -8.44466,5 C 208.29255,342 208,338.57686 208,334.39301 c 0,-6.49685 -0.22878,-7.5192 -1.56767,-7.00542 -0.86221,0.33087 -4.88291,1.56486 -8.93489,2.74221 -5.28533,1.53572 -8.25895,3.06067 -10.52279,5.39636 l -3.15557,3.25572 5.12844,7.05098 c 6.19281,8.51433 9.59521,10.74767 20.8902,13.71233 11.37267,2.98504 12.99679,3.00943 13.64097,0.20481 z m 99.94748,-1.87059 2.69589,-2.12058 -2.19022,-2.33139 c -1.39112,-1.48077 -1.99357,-3.08338 -1.65123,-4.3925 0.36199,-1.38425 -0.0882,-2.39677 -1.37081,-3.08321 -2.04802,-1.09607 -2.6897,-6.35169 -0.9098,-7.45173 1.65114,-1.02046 1.12802,-5.36112 -0.76841,-6.37606 -0.97262,-0.52053 -3.56012,-1.25395 -5.75,-1.62981 -11.96914,-2.05434 -13.82475,-3.51686 -10.24164,-8.07204 l 2.12819,-2.70557 -2.29485,-1.85826 c -2.61422,-2.11687 -6.19943,-2.38743 -9.38903,-0.70856 -3.22224,1.69606 -3.85874,3.19203 -1.96139,4.60987 1.37985,1.03112 1.63615,2.70879 1.41317,9.25 -0.24383,7.15267 -0.0818,7.99204 1.54579,8.00574 4.00599,0.0337 4.30336,1.07702 2.85478,10.01562 -0.75487,4.65799 -1.07191,8.77449 -0.70455,9.14777 0.90939,0.92405 6.09902,1.47029 15.78308,1.66126 6.90328,0.13614 8.51773,-0.15663 10.81103,-1.96055 z m 54.01713,-1.10192 c 0.85618,-1.22237 1.5567,-3.01325 1.5567,-3.97971 0,-0.96646 1.79806,-4.12884 3.9957,-7.02749 4.54857,-5.99952 4.63492,-6.39231 2.12341,-9.65864 l -1.83643,-2.38835 -8.34953,5.13835 C 370.3409,341.68774 366.0023,344 365.29181,344 c -1.51595,0 -1.69387,3.81231 -0.34366,7.36361 0.9557,2.51369 7.48103,7.63639 9.72728,7.63639 0.66614,0 1.91168,-1.00013 2.76787,-2.22251 z m -81.73414,-7.23499 c 0.66504,-4.37663 1.11504,-8.026 1,-8.10973 -0.11504,-0.0837 -8.53416,-1.3543 -18.70916,-2.82352 -10.175,-1.46921 -19.88454,-2.91779 -21.57676,-3.21906 l -3.07676,-0.54777 -0.96089,7.57879 -0.9609,7.57879 4.48765,0 c 3.4904,0 4.22099,0.26667 3.28766,1.2 -2.0318,2.0318 -1.35568,2.79651 2.55,2.88415 2.0625,0.0463 9.15,0.89967 15.75,1.89643 17.76022,2.68223 16.77011,3.0323 18.20916,-6.43808 z m 36.61066,1.59435 c 6.92408,-4.74256 12.19328,-7.04235 20.1317,-8.78669 4.15167,-0.91226 7.54848,-2.07808 7.54848,-2.59072 0,-0.51264 -0.97789,-4.29758 -2.17309,-8.41097 -1.88583,-6.49031 -3.02177,-8.39557 -8.59363,-14.41368 C 345.70198,313.12065 342.24483,310 341.55072,310 c -1.48079,0 -19.1921,23.02555 -18.75137,24.37768 0.16464,0.50512 -0.3747,2.603 -1.19853,4.66195 -1.3984,3.49496 -1.36848,3.86066 0.45065,5.50695 1.07169,0.96987 1.94853,2.95365 1.94853,4.40841 0,2.61101 1.57755,5.04501 3.26982,5.04501 0.47841,0 2.75091,-1.28842 5.05,-2.86315 z M 151,351 c -0.825,-0.53316 -1.95,-0.96937 -2.5,-0.96937 -0.55,0 -0.325,0.43621 0.5,0.96937 0.825,0.53316 1.95,0.96937 2.5,0.96937 0.55,0 0.325,-0.43621 -0.5,-0.96937 z m 16.39857,-3.44897 c 6.84526,-3.75913 20.47946,-14.28199 21.36933,-16.49284 0.14734,-0.36607 -4.2992,-5.69448 -9.88121,-11.84091 l -10.14911,-11.17534 -3.03796,1.72903 c -6.15103,3.50081 -15.8628,13.54099 -18.19156,18.80672 -2.42931,5.49311 -5.60241,8.42231 -9.12358,8.42231 -2.26993,0 -3.85282,2.4332 -2.74693,4.22256 0.76972,1.24544 20.25684,10.62513 22.26102,10.71484 0.76921,0.0344 5.04421,-1.93943 9.5,-4.38637 z M 250,348.1891 c 0,-0.446 0.9,-7.28109 2,-15.1891 1.1,-7.90801 2,-14.73197 2,-15.16435 0,-1.34543 -4.92153,1.00704 -9.05334,4.32746 -3.05928,2.4585 -5.18023,3.27464 -9.42473,3.62663 -5.22908,0.43363 -5.5012,0.59583 -6.01006,3.58223 -0.29315,1.72042 -0.64074,6.27365 -0.77243,10.11829 l -0.23944,6.99026 7.5,1.13026 c 9.46758,1.42678 14,1.61401 14,0.57832 z m 122.59039,-9.97875 c 14.16531,-8.57778 21.38778,-13.6883 20.97238,-14.83976 -0.3711,-1.02864 -11.93629,-17.80615 -13.55039,-19.65741 -1.66982,-1.91517 -30.03848,7.65213 -30.00267,10.11838 0.005,0.36764 1.58661,2.6522 3.51395,5.0768 2.32039,2.91907 4.55824,7.73322 6.6241,14.25 1.71592,5.4129 3.43781,9.84164 3.82643,9.84164 0.38862,0 4.26591,-2.15534 8.6162,-4.78965 z M 136.25,334.64335 c 2.20448,-3.48954 2.74696,-5.5225 2.73469,-10.24821 -0.008,-3.24233 -0.3682,-6.45071 -0.7995,-7.12973 -1.36656,-2.15148 -5.20983,1.54146 -7.87429,7.56627 l -2.45699,5.55569 -2.30893,-2.94369 c -6.24573,-7.96274 -5.86159,-7.67641 -8.04498,-5.99662 -1.93328,1.48736 -1.72584,1.80582 6.21784,9.54582 4.51982,4.40391 8.56982,8.00632 9,8.00533 0.43019,-9.8e-4 2.01966,-1.96067 3.53216,-4.35486 z M 217.89392,334.5 c 3.82596,-2.475 7.66499,-4.5 8.53119,-4.5 0.88409,0 1.57489,-0.83871 1.57489,-1.9121 0,-1.43594 -0.93386,-2.06191 -3.75,-2.51364 -5.1431,-0.82501 -12.74249,-1.00539 -13.84277,-0.32858 -0.84292,0.5185 -0.70154,13.75432 0.14691,13.75432 0.21092,0 3.51382,-2.025 7.33978,-4.5 z m 73.11477,2.25 c 0.005,-1.2375 0.29034,-4.59456 0.63457,-7.46013 0.58611,-4.87906 0.46546,-5.28321 -1.8988,-6.36044 -2.42061,-1.10291 -2.4609,-1.26142 -0.97752,-3.84607 0.93626,-1.63133 1.29121,-3.6607 0.89895,-5.13956 -1.46128,-5.50915 -1.28345,-5.49567 -18.02694,-1.36619 l -15.57938,3.84237 -0.58562,4.04001 c -0.32209,2.22201 -0.67299,6.03859 -0.77978,8.4813 l -0.19417,4.44128 17.5,2.68899 c 9.625,1.47895 17.8375,2.74287 18.25,2.80872 0.4125,0.0658 0.75391,-0.89278 0.75869,-2.13028 z m 101.11887,-1.41201 c 3.26332,-3.95185 24.15825,-16.68962 30.12244,-18.36296 2.15125,-0.60357 3.75,-1.67761 3.75,-2.51926 0,-0.80692 -4.30537,-7.92925 -9.56749,-15.8274 l -9.5675,-14.36026 -6.46723,4.33675 c -3.55697,2.38521 -8.1391,4.79077 -10.1825,5.34567 -2.2901,0.6219 -4.78703,2.35993 -6.50921,4.53082 l -2.79393,3.5219 7.05916,9.95627 c 3.88253,5.47595 7.31427,10.62108 7.62607,11.43362 0.38338,0.99909 -1.2402,2.67721 -5.01523,5.18369 -3.07018,2.03848 -5.58214,3.94469 -5.58214,4.23601 0,1.08766 3.35517,4.18716 4.53254,4.18716 0.67242,0 1.84017,-0.74791 2.59502,-1.66201 z M 330.75,319.56376 c 4.5375,-5.94677 8.25,-11.1301 8.25,-11.51851 0,-0.38842 -1.99583,-2.1395 -4.43517,-3.89131 l -4.43517,-3.18509 -6.31483,4.00607 c -3.47316,2.20334 -7.02848,4.01035 -7.90072,4.01558 -0.87224,0.005 -3.67366,-1.61706 -6.22537,-3.60509 -5.16843,-4.02668 -5.73255,-4.02497 -14.93632,0.0454 l -5.62378,2.4871 1.53824,3.91598 c 1.50658,3.83538 1.60684,3.89492 4.87125,2.89305 3.92515,-1.20467 8.93971,0.4289 10.54939,3.43662 0.77386,1.44597 0.51444,2.58671 -1.10567,4.86195 l -2.11676,2.97272 2.63255,1.00089 c 1.44791,0.5505 3.61576,1.03548 4.81746,1.07775 1.20169,0.0423 3.9849,0.6675 6.1849,1.38941 2.2,0.72191 4.45,1.22194 5,1.11118 0.55,-0.11076 4.7125,-5.06692 9.25,-11.01368 l 0,-2e-5 z m -130.15449,7.87348 c 10.39086,-3.39192 10.71224,-3.7126 10.17794,-10.15564 -0.45924,-5.5378 -2.26123,-8.31929 -8.09892,-12.5012 l -2.82546,-2.02406 -2.94062,3.37183 C 192.91337,310.70908 185,321.58163 185,322.48974 c 0,1.25514 5.43697,7.36181 6.62236,7.43806 0.61729,0.0397 4.65521,-1.08104 8.97315,-2.49056 z M 135.4057,315.22492 c 2.30383,-1.04969 2.45521,-1.43609 1.43761,-3.66946 -0.86285,-1.89377 -0.84667,-2.84649 0.0671,-3.94749 1.69641,-2.04404 -0.67964,-5.81598 -3.16646,-5.0267 -1.85667,0.58929 -2.17514,0.0297 -6.16458,-10.83127 -1.59809,-4.35068 -2.02137,-4.75 -5.03494,-4.75 -1.8096,0 -5.38457,0.92645 -7.9444,2.05878 -2.55982,1.13234 -5.46652,1.80097 -6.45934,1.48587 -1.09904,-0.34882 -2.50848,0.20429 -3.60331,1.41407 -1.75457,1.93878 -1.62039,2.1878 5.53071,10.26413 4.03091,4.55243 8.19929,9.26969 9.26307,10.48279 1.06378,1.21311 2.05702,3.325 2.2072,4.69309 0.15018,1.36809 1.52535,4.12928 3.05593,6.13598 l 2.78289,3.64855 2.72679,-5.39255 c 1.61695,-3.19772 3.77483,-5.87008 5.30175,-6.56579 l -2e-5,0 z m 102.69439,8.76389 c 5.6652,-1.57368 6.62818,-3.38752 7.88772,-14.85708 1.11545,-10.15753 1.0926,-10.41724 -1.12427,-12.77699 -2.22113,-2.36428 -2.22972,-2.46483 -0.46577,-5.45096 0.9884,-1.67324 1.64075,-3.17091 1.44966,-3.32816 C 244.13648,286.16763 234.51774,284 229.98079,284 c -3.11461,0 -7.87195,-0.67013 -10.57186,-1.48918 -2.69991,-0.81904 -5.02143,-1.49404 -5.15893,-1.5 -0.1375,-0.006 -0.25,1.53288 -0.25,3.41963 0,2.79615 0.41603,3.48953 2.25,3.75 1.98371,0.28173 2.21146,0.81003 1.92436,4.46378 -0.1791,2.27933 0.1584,4.44339 0.75,4.80902 2.04513,1.26396 1.05164,2.42456 -4.85518,5.67185 l -5.93081,3.26048 1.90689,2.67798 c 1.04879,1.47289 2.19648,5.14196 2.55043,8.15349 l 0.64354,5.47551 8.13038,0.98931 c 11.53604,1.40372 12.70492,1.42516 16.73048,0.30694 z M 119.94467,316.877 c 0.0944,-1.06253 -17.38542,-20.66721 -18.44467,-20.68685 -0.55,-0.0102 -3.20106,1.56276 -5.891244,3.49546 l -4.891245,3.51401 2.891245,2.42871 c 1.590184,1.33579 6.041244,4.60959 9.891244,7.27512 3.85,2.66553 7.84507,5.78924 8.87793,6.94159 l 1.87794,2.09517 2.81674,-2.2201 c 1.5492,-1.22106 2.84163,-2.50046 2.87206,-2.84311 z m 67.44653,-1.41099 3.67437,-5.53399 -5.28279,-4.95374 -5.28278,-4.95373 -4.24925,4.70949 -4.24925,4.70949 5.71795,5.77823 c 3.14487,3.17803 5.78082,5.77824 5.85767,5.77824 0.0768,0 1.79318,-2.4903 3.81408,-5.53399 z m 85.26537,-4.94183 c 13.18254,-3.32131 15.29958,-4.13253 16.2546,-6.22857 0.76801,-1.68559 0.78552,-2.99384 0.0582,-4.35276 -0.72583,-1.35621 -0.71293,-2.55358 0.0427,-3.96549 0.89197,-1.66666 0.45816,-3.03412 -2.46482,-7.76972 -3.92294,-6.35567 -4.30731,-8.67756 -1.98528,-11.99272 1.24185,-1.773 1.2931,-2.32233 0.25,-2.68009 -4.38446,-1.50377 -14.23296,-3.50428 -19.81202,-4.02437 -3.575,-0.33327 -7.85,-0.80815 -9.5,-1.05528 l -3,-0.44933 0,7.93189 c 0,7.09952 -0.2676,8.22733 -2.55001,10.74708 -5.15769,5.69402 -5.18915,5.79551 -2.96532,9.56463 1.84258,3.12293 1.94754,4.15756 1.05098,10.35998 -0.54782,3.78981 -1.00495,7.87883 -1.01584,9.08671 l -0.0198,2.19614 5.25,-1.77472 c 2.8875,-0.9761 12.07046,-3.49312 20.40657,-5.59338 l 4e-5,0 z m 161.97912,2.98198 c 1.57537,-0.82161 4.31115,-1.49661 6.07951,-1.5 2.15487,-0.004 4.36516,-1.01583 6.70216,-3.06775 5.51328,-4.84072 5.42083,-5.92791 -1.22032,-14.35053 -5.09352,-6.45985 -6.00022,-8.25618 -6.55655,-12.98967 -0.51738,-4.40206 -0.17535,-6.78869 1.722,-12.01583 2.18131,-6.00942 2.24509,-6.7021 0.81053,-8.80254 -2.47615,-3.6255 -3.30339,-3.88914 -10.09728,-3.21798 -8.33486,0.8234 -8.83362,1.05927 -9.59791,4.53906 -0.40591,1.84813 -1.72376,3.49201 -3.5611,4.44214 -3.25443,1.68293 -3.50167,2.80973 -1.41673,6.45694 2.17311,3.80146 1.91533,4.2805 -3.9535,7.347 l -5.44875,2.84701 10.10927,15.15299 c 5.56009,8.33415 10.6006,15.48361 11.20112,15.88769 1.52571,1.02661 1.98493,0.96262 5.22755,-0.72853 z m -82.8452,-3.49687 c 1.49023,-1.09489 8.26663,-3.54102 15.05866,-5.43583 11.32223,-3.15864 12.62903,-3.77211 15.71492,-7.37728 2.08066,-2.43078 4.57939,-4.17487 6.54429,-4.56785 1.74818,-0.34964 6.82647,-3.04442 11.28508,-5.9884 4.45861,-2.94398 9.90656,-6.39546 12.10656,-7.66996 2.2,-1.27451 4.11841,-2.39504 4.26313,-2.49009 0.14472,-0.095 -0.41778,-1.80244 -1.25,-3.79422 -2.09924,-5.02417 -1.97614,-5.46536 1.98687,-7.12121 2.63778,-1.10214 3.5,-2.06067 3.5,-3.89098 0,-3.44725 1.92236,-4.6382 9.35438,-5.79526 4.78081,-0.7443 7.10394,-0.70329 8.70518,0.15366 1.81497,0.97135 2.50997,0.84305 4.11214,-0.75912 1.90403,-1.90404 1.90389,-1.95783 -0.0114,-4.32307 l -1.93939,-2.39504 -5.094,2.3859 c -4.65204,2.1789 -5.46418,2.27602 -9.36048,1.11941 -2.34656,-0.69658 -4.82856,-1.72479 -5.51557,-2.28492 -0.85939,-0.70068 -2.24279,-0.60682 -4.43413,0.30087 -2.43401,1.0082 -3.27917,1.03689 -3.58424,0.12169 -0.63732,-1.91197 -1.54085,-1.48965 -8.13488,3.80241 -6.97193,5.59535 -7.42893,5.76655 -12.32102,4.61585 -2.41471,-0.56798 -2.94911,-0.19809 -4.71519,3.26373 -1.4701,2.88162 -13.29885,18.9649 -17.63707,23.98071 -0.17139,0.19816 -3.37449,1.00135 -7.11799,1.78487 -5.09646,1.06669 -28.9333,10.16967 -31.09917,11.87637 C 331.71918,299.9061 347.18949,312 348.16946,312 c 0.50134,0 2.1308,-0.89582 3.62103,-1.99071 z M 184.97122,291.65226 C 184.98705,291.18601 182.525,287.29249 179.5,283 c -3.025,-4.29249 -5.5,-8.27195 -5.5,-8.84325 0,-0.57129 -0.41955,-1.29801 -0.93234,-1.61493 -1.2945,-0.80005 -15.07344,19.6264 -14.24021,21.11025 0.3699,0.65872 3.14755,4.13764 6.17255,7.73091 l 5.5,6.53324 7.22122,-7.70811 c 3.97167,-4.23946 7.23417,-8.08959 7.25,-8.55585 z m 10.69809,13.18364 3.26452,-3.1641 -5.98234,-4.44554 c -6.32576,-4.70075 -7.55544,-4.70331 -10.06136,-0.021 -0.83196,1.55452 -0.19045,2.61553 3.80459,6.29254 2.64291,2.43251 5.00886,4.44062 5.25767,4.46245 0.24882,0.0218 1.92143,-1.38413 3.71692,-3.12439 l 0,4e-5 z M 325,302 c 4.125,-2.74721 8.0625,-4.99607 8.75,-4.99746 1.84955,-0.004 1.5651,-0.81688 -1.75,-5.00254 -1.65,-2.08329 -3,-4.25899 -3,-4.83489 0,-0.57589 -0.40741,-1.29887 -0.90535,-1.60661 -1.18902,-0.73486 -15.38359,19.16497 -14.58829,20.45179 1.19396,1.93187 4.08705,0.92243 11.49364,-4.01029 z m -21.73713,-4.60875 2.76288,-3.7241 -3.10052,-2.58843 -3.10051,-2.58842 8.70222,-10.49515 c 13.00442,-15.68372 11.71381,-14.67197 15.38304,-12.05925 1.69951,1.21016 3.09002,1.9666 3.09002,1.68098 0,-0.28561 0.68776,-3.12876 1.52836,-6.31809 0.84059,-3.18933 1.26814,-7.38508 0.9501,-9.32389 -0.48377,-2.94909 -1.39372,-3.98349 -5.56877,-6.3304 l -4.99051,-2.8053 -7.00664,5.73235 C 298.85121,259.25744 285,275.81992 285,280.75204 c 0,1.2533 1.6122,4.70688 3.58267,7.67462 3.01857,4.5463 3.40666,5.72476 2.46482,7.48461 -0.80111,1.49688 -0.81456,2.65544 -0.0475,4.08873 0.75018,1.40172 0.7565,2.58646 0.0211,3.9605 -1.93905,3.62315 9.05837,-2.27837 12.24173,-6.56925 l 5e-5,0 z M 212.5,302.16594 c 3.19838,-1.783 4.83936,-3.30596 4.55418,-4.22664 -0.24521,-0.79162 -0.38582,-2.95745 -0.31247,-4.81298 l 0.13335,-3.37367 -7.68753,0.63705 c -4.22814,0.35038 -10.16253,0.21915 -13.18753,-0.29161 -4.10266,-0.69273 -5.83002,-0.61109 -6.79898,0.32132 -1.05515,1.01535 -0.58587,1.7249 2.5,3.78 2.08944,1.3915 6.04073,4.39089 8.78065,6.6653 2.73992,2.27441 5.43992,4.12478 6,4.11193 0.56008,-0.0128 3.26833,-1.27766 6.01833,-2.8107 z m 106.79624,-9.06825 C 326.84406,282.41606 327,282.07332 327,276.16578 c 0,-5.53532 -0.2418,-6.20177 -2.94969,-8.12996 l -2.9497,-2.10037 -7.8003,9.16931 c -11.54104,13.56656 -11.1407,12.77562 -7.88429,15.57666 l 2.75046,2.36585 -1.98817,3.14009 -1.98817,3.14009 3.15493,2.25064 c 1.73521,1.23785 3.40074,2.28917 3.70117,2.33627 0.30043,0.0471 4.01293,-4.8204 8.25,-10.81667 z M 102.9813,291.02626 c 2.08343,-2.92591 2.09345,-3.09114 0.36487,-6.01739 -2.12848,-3.60323 -2.66791,-3.69239 -4.59167,-0.75887 -0.811537,1.2375 -4.054176,4.86939 -7.205865,8.07087 -5.481182,5.56776 -5.65609,5.90291 -4.022611,7.70789 1.661089,1.83548 1.866226,1.77939 7.510378,-2.05348 3.191455,-2.16728 6.766658,-5.29433 7.944898,-6.94902 z m 57.38625,7.65464 c -0.3658,-0.64949 -1.57771,-2.1946 -2.69314,-3.43357 l -2.02805,-2.25267 8.05371,-11.74733 8.05372,-11.74733 -4.9815,-11.43638 c -3.57064,-8.19735 -7.12154,-14.26223 -12.53755,-21.41389 l -7.55605,-9.9775 -2.37639,2.76271 -2.37638,2.76272 4.69442,5.49488 c 4.93023,5.7709 4.90078,6.51883 -0.31145,7.90993 -1.38137,0.36867 -2.42701,1.65885 -2.82945,3.49116 -0.35109,1.5985 -0.95527,2.90637 -1.34262,2.90637 -1.69489,0 -11.68155,7.20711 -12.81543,9.24856 -0.68779,1.23829 -1.26647,3.88646 -1.28595,5.88481 2.29976,5.56318 0.94306,-5.23034 2.35757,9.4484 0.33385,0.86998 0.60699,1.9425 0.60699,2.38337 0,1.3013 3.74154,1.8933 4.86508,0.76976 0.71164,-0.71164 2.01696,-0.55754 4.18937,0.49459 C 143.19847,281.7522 147,281.56275 147,279.88337 147,279.39752 147.45,279 148,279 c 0.55,0 1,0.70156 1,1.55902 0,0.85746 0.39375,1.31566 0.875,1.01823 0.48125,-0.29742 0.875,0.51918 0.875,1.81468 0,1.81078 -0.43357,2.24207 -1.875,1.86513 -1.03125,-0.26968 -1.88868,-1.00034 -1.90541,-1.62369 -0.0167,-0.62335 -0.47862,-0.36456 -1.02645,0.5751 -0.54938,0.94234 -1.65682,1.4549 -2.46959,1.14301 -2.48278,-0.95273 -1.63316,1.25477 0.93293,2.42395 1.42855,0.6509 2.6707,2.29948 3.05668,4.05683 0.80768,3.67736 3.03162,5.74434 8.10315,7.53124 4.1944,1.47785 5.8828,1.23781 4.80124,-0.6826 z m 302.00989,-4.61571 c 4.46741,-3.81414 12.30957,-11.15971 17.42702,-16.32347 l 9.30446,-9.38867 -7.7834,-7.60897 c -8.31096,-8.1247 -10.20751,-8.56424 -10.03064,-2.3247 0.0612,2.16023 -1.11026,5.3288 -3.31546,8.96735 -2.98183,4.92 -4.77249,6.45706 -14.25667,12.23754 -6.873,4.18901 -10.66378,7.08703 -10.34769,7.91073 0.62471,1.62799 9.77859,13.465 10.41284,13.465 0.25684,0 4.12213,-3.12066 8.58954,-6.93481 z M 93.331775,287.80998 c 3.591213,-3.974 6.305164,-7.58841 6.031003,-8.03201 -0.274162,-0.4436 -2.184491,-1.66669 -4.245177,-2.71797 -3.729997,-1.90291 -3.764248,-1.90171 -7.682151,0.26939 -2.967286,1.64431 -4.625463,3.62809 -6.740253,8.06379 l -2.804802,5.88298 2.700762,2.81899 c 3.404139,3.55315 4.208574,3.15631 12.740618,-6.28517 z m 254.721465,3.22003 c 5.03431,-2.1835 11.79938,-4.49058 15.03351,-5.12686 6.26969,-1.23349 6.63361,-1.55241 16.28009,-14.26713 l 3.69024,-4.86399 -23.27854,-15.84024 c -12.8032,-8.71213 -23.56429,-15.86084 -23.91353,-15.88601 -2.0793,-0.1499 -3.81249,5.5457 -4.289,14.09446 -0.28694,5.14787 -0.98393,10.93179 -1.54886,12.85316 -1.37547,4.67804 -1.31093,21.58464 0.0928,24.32234 1.33444,2.60246 6.95535,8.68426 8.02616,8.68426 0.4146,0 4.87279,-1.7865 9.90709,-3.96999 l 4e-5,0 z M 79.242887,284.22554 c 1.897518,-4.37531 3.382987,-6.24765 6.130712,-7.7274 1.994521,-1.07412 3.622033,-2.18812 3.616695,-2.47554 -0.0053,-0.28743 -1.580338,-2.49843 -3.5,-4.91333 C 83.362746,266.43285 82,263.61536 82,261.89305 l 0,-2.82548 -7.101087,3.85314 c -5.120157,2.77826 -7.908578,5.07027 -9.995719,8.21622 -1.592047,2.39969 -2.909889,4.81307 -2.928536,5.36307 -0.03425,1.01019 12.997608,13.42339 14.144629,13.47314 0.340608,0.0148 1.746228,-2.57165 3.1236,-5.7476 z m 110.079723,1.17278 c -0.29838,-0.77757 0.22983,-2.5925 1.17379,-4.03318 2.65703,-4.05513 3.16357,-13.57518 0.97997,-18.41755 -0.99317,-2.20245 -2.15338,-3.87916 -2.57825,-3.72602 -1.6769,0.60442 -11.99874,16.07382 -11.53372,17.28565 0.27264,0.71049 2.43968,3.99923 4.81565,7.30831 3.94175,5.48978 4.46725,5.88431 6.00251,4.50653 0.92541,-0.83048 1.43843,-2.14617 1.14005,-2.92374 z m -74.59123,1.79371 3.23138,-1.72413 -1.96668,-3.23395 c -1.08168,-1.77867 -2.3108,-3.21981 -2.73138,-3.20253 -1.20637,0.0496 -4.09573,4.44718 -4.82128,7.33797 -0.53742,2.14129 -0.31455,2.62281 1.19817,2.58869 1.02213,-0.0231 3.31253,-0.81777 5.08979,-1.76605 z M 212.00517,279.75 c 0.003,-5.0875 0.25368,-13.525 0.5574,-18.75 l 0.55222,-9.5 -6.42625,-4.67492 -6.42625,-4.67492 -4.98044,7.17492 -4.98044,7.17492 2.39979,5 c 1.94126,4.04464 2.31211,6.10549 1.94088,10.78575 -0.2524,3.18216 -1.21327,6.93705 -2.13526,8.34419 -2.14027,3.26646 -1.27133,7.08347 1.74483,7.66454 1.23659,0.23824 5.73585,0.49444 9.99835,0.56934 L 212,289 l 0.005,-9.25 1.7e-4,0 z m -99.8241,-2.8619 c 0.69334,-0.42851 0.66814,-1.30134 -0.0778,-2.69518 C 111.49646,273.05913 111,271.34089 111,270.37461 c 0,-1.59216 0.13765,-1.57489 1.4682,0.18426 1.43323,1.89491 1.46895,1.88823 1.5,-0.28037 0.0254,-1.77253 -2.03976,-3.43448 -10.2182,-8.22328 -5.6375,-3.30097 -10.859137,-6.3588 -11.603638,-6.79516 -0.943901,-0.55323 0.78958,-1.99912 5.726854,-4.77672 3.894274,-2.19084 7.090904,-4.31954 7.103634,-4.73046 0.0644,-2.07911 -7.21529,-8.38554 -11.028912,-9.55438 -4.137063,-1.26797 -4.32642,-1.22399 -7.350461,1.70702 l -3.104004,3.00852 -3.757778,-3.20702 c -3.114885,-2.65835 -3.870184,-4.06243 -4.41481,-8.20702 -0.600541,-4.57009 -4.959453,-16.25623 -5.734594,-15.3743 -0.18094,0.20586 -4.968259,6.2243 -10.638486,13.3743 -5.670226,7.15 -12.769848,16.09711 -15.776936,19.88246 l -5.467433,6.88246 10.673346,10.36754 C 54.247122,270.33461 59.479704,275 60.00474,275 c 0.525037,0 1.873,-1.80019 2.995475,-4.00042 1.122474,-2.20023 3.725418,-5.06384 5.78432,-6.36356 C 72.836226,262.0783 82.600567,257 83.466756,257 83.76004,257 84,258.719 84,260.82 c 0,4.83516 4.964088,10.94709 12.002558,14.77791 2.836513,1.54382 6.026502,4.35872 7.552152,6.66413 l 2.64134,3.99132 2.47979,-4.36576 c 1.36389,-2.40116 2.94124,-4.65094 3.50523,-4.9995 z m 137.78375,7.17764 C 250.53417,283.0019 251,278.96047 251,275.08479 c 0,-7.80954 0.84808,-6.93488 -8.68339,-8.95544 l -4.18339,-0.88682 -0.66672,6.62873 c -0.36669,3.64581 -0.73416,7.50273 -0.8166,8.57094 -0.11056,1.43244 1.03119,2.40241 4.3501,3.69562 5.87909,2.29077 7.70813,2.27607 8.96482,-0.0721 l 0,2e-5 z m 211.97919,-11.69705 c 0.24421,-0.23286 -2.44417,-3.33747 -5.97418,-6.89913 l -6.41819,-6.47575 -2.16223,2.2531 c -4.22791,4.40558 -7.2974,15.76675 -5.78394,21.40821 0.54729,2.04 1.09402,1.83416 10.23635,-3.85397 5.312,-3.30499 9.85798,-6.1996 10.10219,-6.43246 z m -226.4666,1.06033 c 0.39267,-4.71405 0.5584,-8.71285 0.36827,-8.88623 C 234.9729,263.74686 215.25164,253 214.66383,253 214.29872,253 214,258.80187 214,265.89305 l 0,12.89304 3.75,1.55543 c 2.0625,0.85548 6.73428,1.57861 10.38172,1.60695 l 6.63173,0.0515 0.71396,-8.57098 0,3e-5 z M 184.52887,261.5 c 4.26089,-6.05 9.26244,-13.08863 11.11455,-15.64139 l 3.36747,-4.6414 -10.75545,-7.95304 C 182.33995,228.89 173.50211,222.50182 168.61579,219.06823 l -8.88421,-6.24291 -5.81582,6.26543 c -3.28404,3.53792 -5.51107,6.74796 -5.11579,7.37386 0.38502,0.60964 3.89195,5.367 7.79319,10.57191 5.34426,7.13015 8.54513,12.84581 12.98202,23.18146 3.23887,7.54489 6.18535,13.39489 6.54773,13 0.36238,-0.39489 4.14506,-5.66798 8.40596,-11.71798 z m 104.52757,8.25 c 1.03236,-1.2375 1.89199,-2.56491 1.91029,-2.94979 0.0183,-0.38489 -3.88908,-3.4365 -8.68305,-6.78137 -9.87013,-6.88661 -9.96316,-6.85857 -10.50456,3.16631 l -0.27912,5.16837 6.5,1.72653 c 8.61159,2.28742 8.87953,2.27942 11.05644,-0.33005 z m -19.15909,-8.08191 C 270.50381,258.18553 271,254.60882 271,253.71982 c 0,-1.50928 -26.67172,-21.38143 -27.53661,-20.51655 -0.2095,0.20951 -1.43666,7.11197 -2.72702,15.33882 l -2.34612,14.95791 5.55488,1.32976 c 5.15474,1.23398 16.00133,2.71642 22.20222,3.03446 2.49186,0.12781 2.7121,-0.23609 3.75,-6.19613 z M 386.25,261.91264 c 0.9625,-1.6911 1.75,-4.34211 1.75,-5.89114 0,-1.54903 3.15,-8.88959 7,-16.31236 3.85,-7.42276 7,-14.18901 7,-15.03611 0,-0.93683 -1.0773,-1.66414 -2.75,-1.85661 L 396.5,222.5 l 0,-10.5 c 0,-5.775 -0.36406,-11.0625 -0.80902,-11.75 -0.96262,-1.48734 -7.3066,-1.68096 -8.19098,-0.25 -0.33992,0.55 -0.23724,1 0.22818,1 0.46542,0 0.91401,0.9 0.99687,2 0.10273,1.36378 -0.4658,2 -1.7872,2 C 385.78581,205 385,204.31528 385,203.31144 c 0,-1.42127 -0.32276,-1.34212 -2.03896,0.5 -2.19413,2.35512 -4.92345,2.82615 -6.609,1.1406 -0.73061,-0.73061 -3.45767,0.86607 -9.00542,5.27264 -5.21984,4.14611 -11.98077,8.18104 -19.65204,11.72836 -17.08948,7.90244 -17.54713,6.87732 12.03039,26.94783 13.04873,8.85452 23.96123,16.09628 24.25,16.09281 0.28877,-0.003 1.31253,-1.38995 2.27503,-3.08104 z m -146.77759,-16.2618 c 1.25816,-7.78296 2.22907,-14.21314 2.15758,-14.28929 C 241.03576,230.72864 202.78039,204 202.46877,204 c -0.22394,0 -4.45609,5.36186 -9.40477,11.91524 l -8.99759,11.91524 15.12431,11.33476 c 17.53496,13.14139 37.107,24.67989 37.6517,22.19718 0.18833,-0.85841 1.37183,-7.92862 2.62999,-15.71158 z m 213.128,7.77347 6.78021,-7.57568 -2.99876,-2.34688 c -1.64931,-1.29078 -6.79745,-5.52316 -11.44031,-9.40529 -4.64285,-3.88212 -8.66655,-7.04989 -8.94155,-7.03949 -1.01211,0.0383 -7.97557,10.83865 -7.25045,11.24548 0.41275,0.23157 1.88821,0.69179 3.2788,1.02271 1.39059,0.33093 5.10309,2.99789 8.25,5.92659 6.07074,5.64978 7.08959,8.57921 4.12369,11.8565 -1.53324,1.6942 -1.21303,3.89175 0.56708,3.89175 0.4681,0 3.90218,-3.40906 7.63129,-7.57569 z M 133.96872,249.5333 c 1.22739,-1.3065 3.00427,-5.67344 4.11177,-10.10531 2.12006,-8.48377 2.06692,-8.40253 12.66951,-19.36939 3.9875,-4.12449 7.23311,-7.73747 7.21246,-8.02884 -0.0762,-1.07549 -54.98084,-39.13643 -55.76075,-38.65443 -0.44466,0.27482 -2.930376,3.20052 -5.523816,6.50155 l -4.715346,6.00188 5.518726,5.38814 C 100.51657,194.23037 103,197.09846 103,197.64043 c 0,0.54196 1.32742,2.25714 2.94983,3.8115 2.10689,2.01854 4.11755,2.89201 7.03626,3.05669 4.80124,0.2709 5.73228,0.92087 4.11335,2.87156 -0.65277,0.78654 -0.90842,2.53271 -0.56888,3.88557 0.57962,2.30936 0.31418,2.49719 -4.41584,3.12464 -5.19417,0.68904 -7.38986,2.18306 -4.71617,3.20905 0.83892,0.32193 1.79777,1.44375 2.13077,2.49294 0.49073,1.54616 1.58747,1.91501 5.78807,1.9466 l 5.18261,0.039 -5.7636,5.21101 c -3.27577,2.96171 -5.75773,6.0476 -5.75,7.14914 0.0192,2.73095 4.19232,8.54686 6.1386,8.55505 1.01733,0.004 1.85855,1.1746 2.24956,3.12964 0.5277,2.63851 0.85725,2.92969 2.125,1.87755 C 120.76518,246.95 121,247.14495 121,249.24603 c 0,2.34125 0.32468,2.49383 5.40364,2.53947 4.38401,0.0394 5.81149,-0.38558 7.56508,-2.2522 z m 301.74785,-0.16916 c 4.871,-1.86025 5.21481,-2.56859 2.03343,-4.18944 -1.2375,-0.63048 -3.375,-2.01132 -4.75,-3.06854 -1.68472,-1.29534 -4.69804,-2.07744 -9.2401,-2.39823 -6.69686,-0.47298 -6.75273,-0.4556 -8.70846,2.70885 -1.13463,1.83585 -1.73461,4.07876 -1.4165,5.29522 l 0.55186,2.11033 3.4066,-2.00994 c 2.0607,-1.21584 3.4066,-1.55676 3.4066,-0.86289 0,1.32072 5.55675,3.95344 8.46657,4.01136 1.08161,0.0215 3.89411,-0.697 6.25,-1.59672 z M 332.79492,235.62301 c 2.58742,-4.38534 2.18269,-10.11047 -1.00085,-14.15768 -2.44841,-3.11265 -3.33601,-3.09405 -5.43799,0.11397 -1.64591,2.51198 -1.61744,2.63717 1.09079,4.79664 l 2.78081,2.21734 -5.07441,6.70423 -5.07442,6.70423 4.71058,2.40198 4.71057,2.40197 0.54282,-3.7191 c 0.29854,-2.04551 1.53699,-5.40412 2.7521,-7.46358 z m 145.18749,-2.81862 8.48242,-3.92656 -8.98242,-5.74073 c -4.94032,-3.1574 -10.64541,-6.75147 -12.67796,-7.98682 l -3.69556,-2.2461 -1.49894,2.29791 c -1.28939,1.97666 -1.34359,4.21152 -0.38768,15.9861 l 1.11126,13.6882 4.58323,-4.07272 c 2.52078,-2.24 8.40033,-5.83968 13.06565,-7.99928 z M 457.85053,235.75 c -1.19916,-11.96059 -0.99075,-19.1048 0.62462,-21.41105 1.38574,-1.97843 1.23552,-2.26465 -2.47856,-4.72251 -2.17454,-1.43904 -4.30086,-2.59437 -4.72515,-2.5674 -0.42429,0.027 -3.83809,4.08149 -7.58622,9.01005 l -6.81478,8.96101 2.81478,2.36773 C 444.91844,231.78988 458.43154,243 458.50473,243 c 0.04,0 -0.25442,-3.2625 -0.6542,-7.25 z M 86.940917,234.97715 c 2.998078,-2.563 3.641567,-2.76046 5,-1.53432 0.857495,0.77399 2.909083,1.55349 4.559083,1.73221 2.874306,0.31134 3.012884,0.14689 3.307498,-3.92504 L 100.115,227 l -3.984922,0 c -3.113901,0 -4.437939,-0.57592 -6.057498,-2.63486 -2.783663,-3.53885 -2.620783,-4.79115 0.990786,-7.61763 2.813336,-2.20176 2.926004,-2.51144 1.380401,-3.79418 -1.145536,-0.95071 -3.705241,-1.30592 -8.015737,-1.11234 -5.488723,0.2465 -6.504464,0.009 -7.620948,-1.77829 -1.654684,-2.64957 -2.410677,-2.59732 -4.307579,0.29771 -1.442534,2.20159 -1.343205,2.79037 1.476158,8.75 1.662519,3.51428 3.023116,7.81756 3.02355,9.56286 7.22e-4,2.90257 4.083,9.39408 5.839683,9.28609 0.363608,-0.0224 2.209518,-1.36435 4.102023,-2.98221 z m 343.065503,-2.9866 4.08094,-6.00946 -2.35993,-3.24054 c -1.29796,-1.7823 -3.17038,-5.94055 -4.16094,-9.24055 -1.97242,-6.57102 -7.12023,-18.5 -7.98345,-18.5 -0.29832,0 -1.50804,1.9125 -2.68829,4.25 -1.18024,2.3375 -3.66438,6.33529 -5.52032,8.88398 -1.85594,2.54868 -3.37443,5.0599 -3.37443,5.58048 0,0.52057 2.00825,2.38871 4.46277,4.15142 5.1924,3.7289 6.72778,7.72958 5.84077,15.21901 L 417.72142,238 l 4.10203,0 c 3.89492,0 4.30808,-0.30342 8.18297,-6.00945 z M 497.75,222.05693 c 5.0678,-3.11643 6.56552,-5.45176 4.03694,-6.29462 -0.94896,-0.31632 -0.94391,-1.57038 0.0232,-5.76013 0.67994,-2.94568 0.88832,-5.64672 0.46306,-6.00231 -0.42526,-0.35559 -5.58748,-4.78748 -11.47159,-9.84864 l -10.6984,-9.20212 -3.92783,5.27544 c -7.20144,9.67222 -7.18437,9.32149 -0.73773,15.1588 l 5.65075,5.11665 -2.57257,4.75748 -2.57256,4.75748 6.25817,3.95695 c 5.54488,3.50595 6.48844,3.80631 8.27837,2.63523 1.1111,-0.72696 4.38269,-2.77455 7.27019,-4.55021 z m -305.90206,-7.46213 9.02364,-11.9052 -3.68579,-2.62407 c -2.02718,-1.44323 -6.68102,-4.74096 -10.34185,-7.32829 l -6.65606,-4.70422 -9.53247,11.87545 -9.53247,11.87546 10.68853,7.50923 c 5.87869,4.13008 10.7615,7.4412 10.85069,7.35804 0.0892,-0.0832 4.22279,-5.50854 9.18578,-12.0564 z m 159.49714,3.65222 10.84507,-5.51538 -2.55723,-2.3712 -2.55723,-2.3712 1.96215,-4.57752 c 2.37456,-5.53962 2.42194,-6.78038 0.37802,-9.89979 -1.53533,-2.34321 -1.43868,-2.57321 3.13684,-7.46482 L 367.27368,181 l -3.69165,0 c -2.03041,0 -6.72659,-1.29148 -10.43594,-2.86995 l -6.74429,-2.86995 -5.4509,6.04381 c -5.99154,6.64325 -21.93736,26.84081 -21.94567,27.79718 -0.003,0.3306 3.32798,2.98491 7.4019,5.89846 4.07392,2.91355 7.90256,6.38473 8.50809,7.71373 1.37489,3.01754 2.10385,2.81938 16.42986,-4.46626 z m 92.44986,-5.03542 c 3.46222,-4.51638 6.75614,-8.2116 7.31983,-8.2116 0.56368,0 2.97262,1.34008 5.35318,2.97795 l 4.32831,2.97795 2.45999,-3.22795 c 1.353,-1.77537 3.61114,-5.47795 5.01808,-8.22795 4.12768,-8.06791 9.03972,-14.27027 15.28819,-19.30415 3.21565,-2.59058 7.33907,-6.66687 9.16317,-9.05842 l 3.31654,-4.34828 -3.71049,-4.14458 c -2.04077,-2.27951 -8.51914,-9.24946 -14.39637,-15.48878 l -10.68587,-11.34421 -8.4112,7.84421 c -9.28411,8.65828 -11.78992,11.81052 -27.14481,34.14746 l -10.51977,15.30324 2.77782,6.19676 c 1.5278,3.40821 3.79545,9.34675 5.03921,13.19675 2.57887,7.98276 5.82485,12.4351 7.48367,10.26494 0.56407,-0.73795 3.8583,-5.03695 7.32052,-9.55334 z m -116.84797,4.51159 c -0.24583,-0.18557 -2.42054,-1.86039 -4.83268,-3.72181 l -4.38571,-3.38441 -1.95232,2.41101 -1.95232,2.41101 4.33803,3.7263 4.33803,3.72631 2.44697,-2.4155 c 1.34583,-1.32852 2.24583,-2.56733 2,-2.75291 z m 149.89504,-2.83888 c 1.28811,-2.25516 1.96311,-4.43833 1.5,-4.8515 -0.46311,-0.41316 -2.67904,-2.37375 -4.92429,-4.35685 l -4.08229,-3.60564 -3.23831,4.59424 c -1.84254,2.61403 -2.86239,4.97017 -2.36613,5.46643 1.0663,1.0663 9.57363,6.68611 10.26901,6.78355 0.275,0.0385 1.5539,-1.77507 2.84201,-4.03023 z M 505,214.01419 c 0,-0.5422 1.79887,-2.17625 3.99748,-3.63122 l 3.99748,-2.64541 -3.24748,-3.6591 -3.24748,-3.65909 -1.68891,5.04031 C 502.87259,211.24488 502.55334,215 504,215 c 0.55,0 1,-0.44362 1,-0.98581 z M 410.21274,206.75 c 2.35799,-3.4375 4.78896,-7.39455 5.40214,-8.79345 0.61318,-1.3989 1.75228,-3.1989 2.53133,-4 2.60899,-2.68284 25.35933,-36.3701 24.93142,-36.91687 -0.2323,-0.29682 -10.5823,-8.15334 -23,-17.45893 -12.41769,-9.30558 -23.98554,-17.97985 -25.70633,-19.27616 l -3.12869,-2.35692 -11.2815,12.50759 c -6.20483,6.87917 -14.34874,16.95586 -18.09759,22.39264 -6.70004,9.71675 -6.78276,9.91521 -4.85856,11.65659 1.47284,1.3329 2.28854,1.49681 3.29443,0.662 0.99742,-0.82778 1.90372,-0.71252 3.56898,0.45387 1.22764,0.85987 5.02197,2.31535 8.43185,3.23439 l 6.19978,1.671 0.65482,7.32136 c 0.50544,5.65115 1.17257,7.87247 2.92432,9.73713 1.24822,1.32867 2.62539,2.41576 3.06038,2.41576 0.43499,0 2.36814,-1.38484 4.29589,-3.07743 1.92775,-1.69259 3.88222,-2.8443 4.34327,-2.55935 0.46105,0.28494 3.65218,5.01352 7.0914,10.50795 6.24768,9.98114 6.25174,9.99257 4.65066,13.08872 -1.37541,2.65975 -1.37493,5.04011 0.001,5.04011 0.22204,0 2.33299,-2.8125 4.69098,-6.25 l 2e-5,0 z m 108.32187,-8.02673 c 0.95259,-3.88843 1.36883,-4.29796 5.25,-5.16533 2.74756,-0.61403 4.21512,-1.48455 4.2146,-2.5 -10e-4,-2.55591 -5.54586,-13.4052 -7.94029,-15.53713 -2.21511,-1.97224 -2.22692,-1.97224 -3.371,0 -2.56145,4.41563 -9.60976,20.07721 -9.64748,21.43703 -0.0222,0.80181 1.62841,3.16689 3.66811,5.25573 3.33425,3.41459 3.86412,3.64323 5.25,2.26544 0.8478,-0.84286 2.00703,-3.43294 2.57606,-5.75574 z m -7.14439,-16.20992 c 5.34839,-11.37783 5.34469,-11.41282 -1.96251,-18.58429 l -4.32984,-4.24943 -3.90142,3.41019 c -2.14577,1.8756 -4.8411,5.27978 -5.98962,7.56485 -1.15825,2.30443 -4.53721,6.08981 -7.5874,8.5 -3.02456,2.38993 -5.41375,4.66038 -5.30931,5.04545 0.10443,0.38507 4.91488,4.74209 10.68988,9.68227 l 10.5,8.98215 1.59789,-5.18227 c 0.87885,-2.85025 3.71039,-9.67626 6.29233,-15.16892 z m 24.04174,1.05851 c 1.47499,-3.47052 3.10251,-9.18144 3.61671,-12.69095 0.5142,-3.5095 1.59598,-8.83103 2.40397,-11.82562 1.06458,-3.94562 1.1708,-5.80409 0.38577,-6.75 -1.74129,-2.09813 -3.18548,-1.51657 -5.63945,2.27093 -1.26557,1.9533 -3.78748,4.42848 -5.60423,5.50039 -1.81676,1.07191 -5.15063,4.13988 -7.4086,6.8177 -4.07346,4.83089 -4.08985,4.88285 -2.10548,6.67868 1.74528,1.57945 6.48811,10.58925 8.24364,15.66015 1.03981,3.00353 3.32551,0.88489 6.10767,-5.66128 z m -7.91839,-23.11031 c 9.65292,-9.37459 9.78441,-9.56453 7.65404,-11.0567 -1.8416,-1.28991 -2.16761,-2.48602 -2.16761,-7.9529 0,-5.81383 -0.33768,-6.87703 -3.5,-11.01989 -3.49585,-4.57981 -4.3875,-7.76552 -2.5,-8.93206 0.55,-0.33992 1,-2.36492 1,-4.5 0,-2.13508 0.45,-4.16008 1,-4.5 1.57887,-0.97579 1.17012,-4.06834 -0.87086,-6.58884 -1.78017,-2.19843 -1.99146,-2.23139 -4.35903,-0.6801 -1.74589,1.14395 -2.65035,2.83938 -3.03177,5.68312 -0.46166,3.44188 -2.06534,5.67576 -10.63865,14.81931 -5.55228,5.92158 -10.0961,11.57938 -10.09737,12.57288 -10e-4,0.9935 -1.45532,3.13348 -3.2312,4.7555 l -3.22889,2.94913 11.96326,11.9945 c 6.57978,6.59697 12.01346,11.9945 12.07484,11.9945 0.0614,0 4.53133,-4.2923 9.93324,-9.53845 z m -26.79648,0.70245 3.2171,-2.75471 -14.75517,-14.73057 -14.75517,-14.73057 -2.85183,2.97667 -2.85183,2.97667 13.78439,14.54926 c 7.58142,8.00209 14.05688,14.53096 14.38991,14.50861 0.33303,-0.0224 2.0532,-1.28026 3.8226,-2.79536 z m -10.4167,-50.16351 c 7.21294,-6.92872 8.53532,-8.64745 7.33092,-9.52813 -0.87253,-0.63801 -1.40079,-2.475564 -1.30039,-4.523435 0.17708,-3.612108 -0.30654,-3.841444 -5.06316,-2.400959 -1.79905,0.544822 -2.57529,0.07332 -4,-2.429657 -1.35425,-2.379195 -2.46951,-3.110725 -4.76776,-3.127299 -4.79724,-0.0346 -5.60804,-1.015833 -4.41368,-5.341467 1.66679,-6.036624 0.67879,-7.804874 -1.94937,-3.488847 -1.22602,2.013382 -2.85737,3.901777 -3.62523,4.196433 -1.2129,0.465434 -12.25686,-6.427647 -24.93026,-15.560205 l -3.91855,-2.823736 -15.87196,16.465854 c -8.72958,9.056219 -20.16987,20.499588 -25.42288,25.429708 l -9.55092,8.96386 25.78355,19.36779 25.78356,19.36778 18.55787,-18.05703 c 10.20683,-9.93138 22.51805,-21.86117 27.35826,-26.51066 z m 5.38516,30.8252 C 496.9585,140.62981 498,138.90248 498,137.98717 c 0,-0.91531 4.725,-6.86895 10.5,-13.23032 10.529,-11.59806 12.2051,-14.78258 9.49965,-18.04906 -0.55019,-0.66428 -1.80517,-2.26454 -2.78884,-3.55613 -1.65383,-2.17153 -2.23731,-2.29383 -7.74965,-1.62437 l -5.96116,0.72396 -12.69519,12.52074 -12.6952,12.52074 7.6952,8.32122 c 4.23235,4.57667 8.11619,8.3358 8.63074,8.35363 0.51455,0.0178 1.97705,-0.94602 3.25,-2.14189 z"
         id="path2828"
         style="fill:#000000" />
    </g>
    <path
       style="fill:none;stroke:#000000;stroke-width:1.60000002;stroke-linecap:butt;stroke-linejoin:round;stroke-miterlimit:4;stroke-opacity:1;stroke-dasharray:none"
       id="path3615"
       d="m 507.3986,225.57549 0.95245,-5.9528 -5.00036,0.83339" />
  </g>
</svg>
